<?xml version="1.0" standalone="no"?>
 <!DOCTYPE svg PUBLIC "-//W3C//DTD SVG 1.1//EN" 
 "http://www.w3.org/Graphics/SVG/1.1/DTD/svg11.dtd"> 
<svg xmlns="http://www.w3.org/2000/svg" version="1.1" 
    width="29.7002cm" height="21.0007cm" viewBox="0 0 116930 82680 ">
<title>SVG Picture created as ThermocoupleLogger-Cmts_User.svg date 2020/03/23 11:42:09 </title>
  <desc>Picture generated by PCBNEW </desc>
<g style="fill:#000000; fill-opacity:1;stroke:#000000; stroke-opacity:1;
stroke-linecap:round; stroke-linejoin:round; "
 transform="translate(0 0) scale(1 1)">
</g>
<g style="fill:#000000; fill-opacity:0.0; 
stroke:#000000; stroke-width:-0.000787402; stroke-opacity:1; 
stroke-linecap:round; stroke-linejoin:round;">
</g>
<g style="fill:#000000; fill-opacity:0.0; 
stroke:#000000; stroke-width:236.22; stroke-opacity:1; 
stroke-linecap:round; stroke-linejoin:round;">
<g transform="rotate(-270 22459.6 42880.9)">
<text x="22459.6" y="43471.5"
textLength="10389.8" font-size="1574.8" lengthAdjust="spacingAndGlyphs"
text-anchor="middle" opacity="0">71.755 mm</text>
</g>
<path d="M23106 37931
L23106 38718
L21925 38212
" />
<path d="M21925 39787
L21925 39112
" />
<path d="M21925 39450
L23106 39450
L22937 39337
L22825 39225
L22768 39112
" />
<path d="M22037 40293
L21981 40350
L21925 40293
L21981 40237
L22037 40293
L21925 40293
" />
<path d="M23106 40743
L23106 41531
L21925 41024
" />
<path d="M23106 42543
L23106 41981
L22544 41924
L22600 41981
L22656 42093
L22656 42374
L22600 42487
L22544 42543
L22431 42599
L22150 42599
L22037 42543
L21981 42487
L21925 42374
L21925 42093
L21981 41981
L22037 41924
" />
<path d="M23106 43668
L23106 43105
L22544 43049
L22600 43105
L22656 43218
L22656 43499
L22600 43612
L22544 43668
L22431 43724
L22150 43724
L22037 43668
L21981 43612
L21925 43499
L21925 43218
L21981 43105
L22037 43049
" />
<path d="M21925 45130
L22712 45130
" />
<path d="M22600 45130
L22656 45186
L22712 45299
L22712 45468
L22656 45580
L22544 45636
L21925 45636
" />
<path d="M22544 45636
L22656 45693
L22712 45805
L22712 45974
L22656 46086
L22544 46143
L21925 46143
" />
<path d="M21925 46705
L22712 46705
" />
<path d="M22600 46705
L22656 46761
L22712 46874
L22712 47042
L22656 47155
L22544 47211
L21925 47211
" />
<path d="M22544 47211
L22656 47267
L22712 47380
L22712 47549
L22656 47661
L22544 47717
L21925 47717
" />
<path d="M22459 14630
L22459 71130
" />
<path d="M22459 14630
L22459 14630
" />
<path d="M22459 71130
L22459 71130
" />
<path d="M22459 71130
L21997 70243
" />
<path d="M22459 71130
L22921 70243
" />
<path d="M22459 14630
L21997 15517
" />
<path d="M22459 14630
L22921 15517
" />
<text x="60279.7" y="12341"
textLength="10543.3" font-size="1574.8" lengthAdjust="spacingAndGlyphs"
text-anchor="middle" opacity="0">88.900 mm</text>
<path d="M55611 11609
L55499 11553
L55442 11497
L55386 11384
L55386 11328
L55442 11216
L55499 11159
L55611 11103
L55836 11103
L55948 11159
L56005 11216
L56061 11328
L56061 11384
L56005 11497
L55948 11553
L55836 11609
L55611 11609
L55499 11666
L55442 11722
L55386 11834
L55386 12059
L55442 12172
L55499 12228
L55611 12284
L55836 12284
L55948 12228
L56005 12172
L56061 12059
L56061 11834
L56005 11722
L55948 11666
L55836 11609
" />
<path d="M56736 11609
L56623 11553
L56567 11497
L56511 11384
L56511 11328
L56567 11216
L56623 11159
L56736 11103
L56961 11103
L57073 11159
L57130 11216
L57186 11328
L57186 11384
L57130 11497
L57073 11553
L56961 11609
L56736 11609
L56623 11666
L56567 11722
L56511 11834
L56511 12059
L56567 12172
L56623 12228
L56736 12284
L56961 12284
L57073 12228
L57130 12172
L57186 12059
L57186 11834
L57130 11722
L57073 11666
L56961 11609
" />
<path d="M57692 12172
L57748 12228
L57692 12284
L57636 12228
L57692 12172
L57692 12284
" />
<path d="M58311 12284
L58536 12284
L58648 12228
L58704 12172
L58817 12003
L58873 11778
L58873 11328
L58817 11216
L58761 11159
L58648 11103
L58423 11103
L58311 11159
L58254 11216
L58198 11328
L58198 11609
L58254 11722
L58311 11778
L58423 11834
L58648 11834
L58761 11778
L58817 11722
L58873 11609
" />
<path d="M59604 11103
L59717 11103
L59829 11159
L59885 11216
L59942 11328
L59998 11553
L59998 11834
L59942 12059
L59885 12172
L59829 12228
L59717 12284
L59604 12284
L59492 12228
L59436 12172
L59379 12059
L59323 11834
L59323 11553
L59379 11328
L59436 11216
L59492 11159
L59604 11103
" />
<path d="M60729 11103
L60842 11103
L60954 11159
L61010 11216
L61067 11328
L61123 11553
L61123 11834
L61067 12059
L61010 12172
L60954 12228
L60842 12284
L60729 12284
L60617 12228
L60560 12172
L60504 12059
L60448 11834
L60448 11553
L60504 11328
L60560 11216
L60617 11159
L60729 11103
" />
<path d="M62529 12284
L62529 11497
" />
<path d="M62529 11609
L62585 11553
L62698 11497
L62866 11497
L62979 11553
L63035 11666
L63035 12284
" />
<path d="M63035 11666
L63091 11553
L63204 11497
L63373 11497
L63485 11553
L63541 11666
L63541 12284
" />
<path d="M64104 12284
L64104 11497
" />
<path d="M64104 11609
L64160 11553
L64272 11497
L64441 11497
L64554 11553
L64610 11666
L64610 12284
" />
<path d="M64610 11666
L64666 11553
L64779 11497
L64947 11497
L65060 11553
L65116 11666
L65116 12284
" />
<path d="M25279 11750
L95279 11750
" />
<path d="M25279 11750
L25279 11750
" />
<path d="M95279 11750
L95279 11750
" />
<path d="M95279 11750
L94392 12212
" />
<path d="M95279 11750
L94392 11288
" />
<path d="M25279 11750
L26166 12212
" />
<path d="M25279 11750
L26166 11288
" />
</g>
<g style="fill:#000000; fill-opacity:0.0; 
stroke:#000000; stroke-width:78.7402; stroke-opacity:1; 
stroke-linecap:round; stroke-linejoin:round;">
<path d="M95279 14140
L95279 15140
" />
<path d="M25279 14140
L95279 14140
" />
<path d="M25279 15140
L25279 14140
" />
<path d="M95279 71140
L95279 15140
" />
<path d="M95279 71140
L95279 71140
" />
<path d="M95279 71140
L95279 71140
" />
<path d="M95279 71140
L95279 71140
" />
<path d="M25279 71140
L95279 71140
" />
<path d="M25279 71140
L25279 71140
" />
<path d="M25279 71140
L25279 71140
" />
<path d="M25279 15140
L25279 71140
" />
<path d="M25279 15140
L25279 15140
" />
</g>
<g style="fill:#000000; fill-opacity:0.0; 
stroke:#000000; stroke-width:118.11; stroke-opacity:1; 
stroke-linecap:round; stroke-linejoin:round;">
<circle cx="29679.7" cy="28340.2" r="4330.71" /> 
<circle cx="28279.7" cy="17140.2" r="2519.69" /> 
</g>
<g style="fill:#000000; fill-opacity:0.0; 
stroke:#000000; stroke-width:39.3701; stroke-opacity:1; 
stroke-linecap:round; stroke-linejoin:round;">
<path d="M58308 14329
L55159 14329
" />
<path d="M59096 15116
L58308 14329
" />
<path d="M66970 15116
L59096 15116
" />
<path d="M67757 14329
L66970 15116
" />
<path d="M69332 14329
L67757 14329
" />
</g>
<g style="fill:#000000; fill-opacity:0.0; 
stroke:#000000; stroke-width:118.11; stroke-opacity:1; 
stroke-linecap:round; stroke-linejoin:round;">
<circle cx="28279.7" cy="68140.2" r="2519.69" /> 
<circle cx="92279.7" cy="68140.2" r="2519.69" /> 
<circle cx="92279.7" cy="17140.2" r="2519.69" /> 
<g >
</g>
<g >
</g>
<g >
</g>
<g >
</g>
<g >
</g>
<g >
</g>
<g >
</g>
<g >
</g>
<g >
</g>
<g >
</g>
<g >
</g>
<g >
</g>
<g >
</g>
<g >
</g>
<g >
</g>
<g >
</g>
<g >
</g>
<g >
</g>
<g >
</g>
<g >
</g>
<g >
</g>
<g >
</g>
<g >
</g>
<g >
</g>
<g >
</g>
<g >
</g>
<g >
</g>
<g >
</g>
<g >
</g>
<g >
</g>
<g >
</g>
<g >
</g>
<g >
</g>
<g >
</g>
<g >
</g>
<g >
</g>
<g >
</g>
<g >
</g>
<g >
</g>
<g >
</g>
<g >
</g>
<g >
</g>
<g >
</g>
<g >
</g>
<g >
</g>
<g >
</g>
<g >
</g>
<g >
</g>
<g >
</g>
<g >
</g>
<g >
</g>
<g >
</g>
<g >
</g>
<g >
</g>
<g >
</g>
<g >
</g>
<g >
</g>
<g >
</g>
<g >
</g>
<g >
</g>
<g >
</g>
<g >
</g>
<g >
</g>
<g >
</g>
<g >
</g>
<g >
</g>
<g >
</g>
<g >
</g>
<g >
</g>
<g >
</g>
<g >
</g>
<g >
</g>
<g >
</g>
<g >
</g>
<g >
</g>
<g >
</g>
<g >
</g>
<g >
</g>
<g >
</g>
<g >
</g>
</g> 
</svg>
