<?xml version="1.0" standalone="no"?>
 <!DOCTYPE svg PUBLIC "-//W3C//DTD SVG 1.1//EN" 
 "http://www.w3.org/Graphics/SVG/1.1/DTD/svg11.dtd"> 
<svg xmlns="http://www.w3.org/2000/svg" version="1.1" 
    width="29.7002cm" height="21.0007cm" viewBox="0 0 116930 82680 ">
<title>SVG Picture created as ThermocoupleLogger-F_SilkS.svg date 2020/03/23 11:43:55 </title>
  <desc>Picture generated by PCBNEW </desc>
<g style="fill:#000000; fill-opacity:1;stroke:#000000; stroke-opacity:1;
stroke-linecap:round; stroke-linejoin:round; "
 transform="translate(0 0) scale(1 1)">
</g>
<g style="fill:#000000; fill-opacity:0.0; 
stroke:#000000; stroke-width:-0.000787402; stroke-opacity:1; 
stroke-linecap:round; stroke-linejoin:round;">
</g>
<g style="fill:#000000; fill-opacity:0.0; 
stroke:#000000; stroke-width:196.85; stroke-opacity:1; 
stroke-linecap:round; stroke-linejoin:round;">
<g transform="rotate(-90 86479.7 56340.2)">
<text x="86479.7" y="56733.9"
textLength="14020.9" font-size="1049.87" lengthAdjust="spacingAndGlyphs"
text-anchor="middle" opacity="0">©2017, JP Enterprises</text>
</g>
<path d="M86235 62462
L86198 62532
L86198 62682
L86235 62762
L86310 62846
L86385 62893
L86535 62912
L86610 62883
L86685 62818
L86723 62747
L86723 62597
L86685 62518
" />
<path d="M85936 62574
L85973 62766
L86085 62968
L86273 63104
L86460 63165
L86648 63151
L86835 63061
L86948 62888
L86985 62705
L86948 62513
L86835 62312
L86648 62176
L86460 62115
L86273 62129
L86085 62218
L85973 62391
L85936 62574
" />
<path d="M86123 61773
L86085 61730
L86048 61651
L86048 61463
L86085 61393
L86123 61360
L86198 61332
L86273 61341
L86385 61393
L86835 61899
L86835 61412
" />
<path d="M86048 60826
L86048 60751
L86085 60681
L86123 60648
L86198 60620
L86348 60601
L86535 60624
L86685 60681
L86760 60727
L86798 60770
L86835 60849
L86835 60924
L86798 60995
L86760 61027
L86685 61055
L86535 61074
L86348 61051
L86198 60995
L86123 60948
L86085 60906
L86048 60826
" />
<path d="M86835 59912
L86835 60362
" />
<path d="M86835 60137
L86048 60038
L86160 60127
L86235 60212
L86273 60292
" />
<path d="M86048 59551
L86048 59026
L86835 59462
" />
<path d="M86798 58782
L86835 58787
L86910 58834
L86948 58876
" />
<path d="M86048 57526
L86610 57597
L86723 57648
L86798 57732
L86835 57850
L86835 57925
" />
<path d="M86835 57250
L86048 57151
L86048 56851
L86085 56781
L86123 56748
L86198 56720
L86310 56734
L86385 56781
L86423 56823
L86460 56903
L86460 57203
" />
<path d="M86423 55811
L86423 55548
" />
<path d="M86835 55487
L86835 55862
L86048 55764
L86048 55389
" />
<path d="M86310 55084
L86835 55150
" />
<path d="M86385 55094
L86348 55052
L86310 54972
L86310 54859
L86348 54789
L86423 54761
L86835 54813
" />
<path d="M86310 54484
L86310 54184
" />
<path d="M86048 54339
L86723 54424
L86798 54395
L86835 54325
L86835 54250
" />
<path d="M86798 53683
L86835 53763
L86835 53913
L86798 53983
L86723 54011
L86423 53974
L86348 53927
L86310 53847
L86310 53697
L86348 53627
L86423 53599
L86498 53608
L86573 53992
" />
<path d="M86835 53313
L86310 53247
" />
<path d="M86460 53266
L86385 53219
L86348 53177
L86310 53097
L86310 53022
" />
<path d="M86310 52760
L87098 52858
" />
<path d="M86348 52764
L86310 52685
L86310 52535
L86348 52464
L86385 52432
L86460 52403
L86685 52432
L86760 52478
L86798 52521
L86835 52600
L86835 52750
L86798 52821
" />
<path d="M86835 52113
L86310 52047
" />
<path d="M86460 52066
L86385 52019
L86348 51977
L86310 51897
L86310 51822
" />
<path d="M86835 51625
L86310 51560
" />
<path d="M86048 51527
L86085 51569
L86123 51536
L86085 51494
L86048 51527
L86123 51536
" />
<path d="M86798 51283
L86835 51213
L86835 51063
L86798 50983
L86723 50936
L86685 50932
L86610 50960
L86573 51030
L86573 51143
L86535 51213
L86460 51241
L86423 51236
L86348 51190
L86310 51110
L86310 50997
L86348 50927
" />
<path d="M86798 50308
L86835 50388
L86835 50538
L86798 50608
L86723 50636
L86423 50599
L86348 50552
L86310 50472
L86310 50322
L86348 50252
L86423 50224
L86498 50233
L86573 50618
" />
<path d="M86798 49971
L86835 49901
L86835 49751
L86798 49671
L86723 49624
L86685 49619
L86610 49648
L86573 49718
L86573 49830
L86535 49901
L86460 49929
L86423 49924
L86348 49877
L86310 49798
L86310 49685
L86348 49615
" />
</g>
<g style="fill:#000000; fill-opacity:0.0; 
stroke:#000000; stroke-width:236.22; stroke-opacity:1; 
stroke-linecap:round; stroke-linejoin:round;">
<text x="71379.7" y="16230.7"
textLength="1718.22" font-size="1574.8" lengthAdjust="spacingAndGlyphs"
text-anchor="middle" opacity="0">-</text>
<path d="M70929 15724
L71829 15724
" />
<text x="76179.7" y="16230.7"
textLength="1769.4" font-size="1574.8" lengthAdjust="spacingAndGlyphs"
text-anchor="middle" opacity="0">+</text>
<path d="M75729 15724
L76629 15724
" />
<path d="M76179 16174
L76179 15274
" />
<g transform="rotate(-90 92779.7 53640.2)">
<text x="92779.7" y="54230.7"
textLength="19992.1" font-size="1574.8" lengthAdjust="spacingAndGlyphs"
text-anchor="middle" opacity="0">Revision: ca9ed02408</text>
</g>
<path d="M93314 62526
L92751 62920
" />
<path d="M93314 63201
L92132 63201
L92132 62751
L92189 62639
L92245 62582
L92357 62526
L92526 62526
L92639 62582
L92695 62639
L92751 62751
L92751 63201
" />
<path d="M93257 61570
L93314 61682
L93314 61907
L93257 62020
L93145 62076
L92695 62076
L92582 62020
L92526 61907
L92526 61682
L92582 61570
L92695 61514
L92807 61514
L92920 62076
" />
<path d="M92526 61120
L93314 60839
L92526 60558
" />
<path d="M93314 60108
L92526 60108
" />
<path d="M92132 60108
L92189 60164
L92245 60108
L92189 60051
L92132 60108
L92245 60108
" />
<path d="M93257 59601
L93314 59489
L93314 59264
L93257 59152
L93145 59095
L93089 59095
L92976 59152
L92920 59264
L92920 59433
L92864 59545
L92751 59601
L92695 59601
L92582 59545
L92526 59433
L92526 59264
L92582 59152
" />
<path d="M93314 58589
L92526 58589
" />
<path d="M92132 58589
L92189 58645
L92245 58589
L92189 58533
L92132 58589
L92245 58589
" />
<path d="M93314 57858
L93257 57970
L93201 58027
L93089 58083
L92751 58083
L92639 58027
L92582 57970
L92526 57858
L92526 57689
L92582 57577
L92639 57520
L92751 57464
L93089 57464
L93201 57520
L93257 57577
L93314 57689
L93314 57858
" />
<path d="M92526 56958
L93314 56958
" />
<path d="M92639 56958
L92582 56902
L92526 56789
L92526 56621
L92582 56508
L92695 56452
L93314 56452
" />
<path d="M93201 55889
L93257 55833
L93314 55889
L93257 55946
L93201 55889
L93314 55889
" />
<path d="M92582 55889
L92639 55833
L92695 55889
L92639 55946
L92582 55889
L92695 55889
" />
<path d="M93257 53921
L93314 54033
L93314 54258
L93257 54371
L93201 54427
L93089 54483
L92751 54483
L92639 54427
L92582 54371
L92526 54258
L92526 54033
L92582 53921
" />
<path d="M93314 52909
L92695 52909
L92582 52965
L92526 53077
L92526 53302
L92582 53415
" />
<path d="M93257 52909
L93314 53021
L93314 53302
L93257 53415
L93145 53471
L93032 53471
L92920 53415
L92864 53302
L92864 53021
L92807 52909
" />
<path d="M93314 52290
L93314 52065
L93257 51952
L93201 51896
L93032 51784
L92807 51727
L92357 51727
L92245 51784
L92189 51840
L92132 51952
L92132 52177
L92189 52290
L92245 52346
L92357 52402
L92639 52402
L92751 52346
L92807 52290
L92864 52177
L92864 51952
L92807 51840
L92751 51784
L92639 51727
" />
<path d="M93257 50771
L93314 50884
L93314 51109
L93257 51221
L93145 51277
L92695 51277
L92582 51221
L92526 51109
L92526 50884
L92582 50771
L92695 50715
L92807 50715
L92920 51277
" />
<path d="M93314 49703
L92132 49703
" />
<path d="M93257 49703
L93314 49815
L93314 50040
L93257 50153
L93201 50209
L93089 50265
L92751 50265
L92639 50209
L92582 50153
L92526 50040
L92526 49815
L92582 49703
" />
<path d="M92132 48915
L92132 48803
L92189 48690
L92245 48634
L92357 48578
L92582 48522
L92864 48522
L93089 48578
L93201 48634
L93257 48690
L93314 48803
L93314 48915
L93257 49028
L93201 49084
L93089 49140
L92864 49197
L92582 49197
L92357 49140
L92245 49084
L92189 49028
L92132 48915
" />
<path d="M92245 48072
L92189 48015
L92132 47903
L92132 47622
L92189 47509
L92245 47453
L92357 47397
L92470 47397
L92639 47453
L93314 48128
L93314 47397
" />
<path d="M92526 46384
L93314 46384
" />
<path d="M92076 46666
L92920 46947
L92920 46216
" />
<path d="M92132 45541
L92132 45428
L92189 45316
L92245 45259
L92357 45203
L92582 45147
L92864 45147
L93089 45203
L93201 45259
L93257 45316
L93314 45428
L93314 45541
L93257 45653
L93201 45709
L93089 45766
L92864 45822
L92582 45822
L92357 45766
L92245 45709
L92189 45653
L92132 45541
" />
<path d="M92639 44472
L92582 44585
L92526 44641
L92414 44697
L92357 44697
L92245 44641
L92189 44585
L92132 44472
L92132 44247
L92189 44135
L92245 44078
L92357 44022
L92414 44022
L92526 44078
L92582 44135
L92639 44247
L92639 44472
L92695 44585
L92751 44641
L92864 44697
L93089 44697
L93201 44641
L93257 44585
L93314 44472
L93314 44247
L93257 44135
L93201 44078
L93089 44022
L92864 44022
L92751 44078
L92695 44135
L92639 44247
" />
</g>
<g style="fill:#000000; fill-opacity:0.0; 
stroke:#000000; stroke-width:78.7402; stroke-opacity:1; 
stroke-linecap:round; stroke-linejoin:round;">
<path d="M95279 14140
L95279 15140
" />
<path d="M25279 14140
L95279 14140
" />
<path d="M25279 15140
L25279 14140
" />
</g>
<g style="fill:#000000; fill-opacity:0.0; 
stroke:#000000; stroke-width:236.22; stroke-opacity:1; 
stroke-linecap:round; stroke-linejoin:round;">
<text x="73279.7" y="18730.7"
textLength="5143.98" font-size="1574.8" lengthAdjust="spacingAndGlyphs"
text-anchor="middle" opacity="0">Reset</text>
<path d="M71817 18674
L71423 18112
" />
<path d="M71142 18674
L71142 17493
L71592 17493
L71704 17549
L71761 17605
L71817 17718
L71817 17887
L71761 17999
L71704 18055
L71592 18112
L71142 18112
" />
<path d="M72773 18618
L72661 18674
L72436 18674
L72323 18618
L72267 18505
L72267 18055
L72323 17943
L72436 17887
L72661 17887
L72773 17943
L72829 18055
L72829 18168
L72267 18280
" />
<path d="M73279 18618
L73392 18674
L73617 18674
L73729 18618
L73785 18505
L73785 18449
L73729 18337
L73617 18280
L73448 18280
L73335 18224
L73279 18112
L73279 18055
L73335 17943
L73448 17887
L73617 17887
L73729 17943
" />
<path d="M74742 18618
L74629 18674
L74404 18674
L74292 18618
L74235 18505
L74235 18055
L74292 17943
L74404 17887
L74629 17887
L74742 17943
L74798 18055
L74798 18168
L74235 18280
" />
<path d="M75135 17887
L75585 17887
" />
<path d="M75304 17493
L75304 18505
L75360 18618
L75473 18674
L75585 18674
" />
<g transform="rotate(-90 89279.7 48640.2)">
<text x="89279.7" y="49230.7"
textLength="29553.4" font-size="1574.8" lengthAdjust="spacingAndGlyphs"
text-anchor="middle" opacity="0">8-Channel Thermocouple logger</text>
</g>
<path d="M89139 62813
L89082 62925
L89026 62982
L88914 63038
L88857 63038
L88745 62982
L88689 62925
L88632 62813
L88632 62588
L88689 62475
L88745 62419
L88857 62363
L88914 62363
L89026 62419
L89082 62475
L89139 62588
L89139 62813
L89195 62925
L89251 62982
L89364 63038
L89589 63038
L89701 62982
L89757 62925
L89814 62813
L89814 62588
L89757 62475
L89701 62419
L89589 62363
L89364 62363
L89251 62419
L89195 62475
L89139 62588
" />
<path d="M89364 61857
L89364 60957
" />
<path d="M89701 59720
L89757 59776
L89814 59945
L89814 60057
L89757 60226
L89645 60338
L89532 60394
L89307 60451
L89139 60451
L88914 60394
L88801 60338
L88689 60226
L88632 60057
L88632 59945
L88689 59776
L88745 59720
" />
<path d="M89814 59213
L88632 59213
" />
<path d="M89814 58707
L89195 58707
L89082 58763
L89026 58876
L89026 59045
L89082 59157
L89139 59213
" />
<path d="M89814 57639
L89195 57639
L89082 57695
L89026 57807
L89026 58032
L89082 58145
" />
<path d="M89757 57639
L89814 57751
L89814 58032
L89757 58145
L89645 58201
L89532 58201
L89420 58145
L89364 58032
L89364 57751
L89307 57639
" />
<path d="M89026 57076
L89814 57076
" />
<path d="M89139 57076
L89082 57020
L89026 56907
L89026 56739
L89082 56626
L89195 56570
L89814 56570
" />
<path d="M89026 56008
L89814 56008
" />
<path d="M89139 56008
L89082 55951
L89026 55839
L89026 55670
L89082 55558
L89195 55501
L89814 55501
" />
<path d="M89757 54489
L89814 54601
L89814 54826
L89757 54939
L89645 54995
L89195 54995
L89082 54939
L89026 54826
L89026 54601
L89082 54489
L89195 54433
L89307 54433
L89420 54995
" />
<path d="M89814 53758
L89757 53870
L89645 53927
L88632 53927
" />
<path d="M88632 52577
L88632 51902
" />
<path d="M89814 52239
L88632 52239
" />
<path d="M89814 51508
L88632 51508
" />
<path d="M89814 51002
L89195 51002
L89082 51058
L89026 51171
L89026 51339
L89082 51452
L89139 51508
" />
<path d="M89757 49990
L89814 50102
L89814 50327
L89757 50439
L89645 50496
L89195 50496
L89082 50439
L89026 50327
L89026 50102
L89082 49990
L89195 49933
L89307 49933
L89420 50496
" />
<path d="M89814 49427
L89026 49427
" />
<path d="M89251 49427
L89139 49371
L89082 49315
L89026 49202
L89026 49090
" />
<path d="M89814 48696
L89026 48696
" />
<path d="M89139 48696
L89082 48640
L89026 48527
L89026 48358
L89082 48246
L89195 48190
L89814 48190
" />
<path d="M89195 48190
L89082 48134
L89026 48021
L89026 47852
L89082 47740
L89195 47684
L89814 47684
" />
<path d="M89814 46952
L89757 47065
L89701 47121
L89589 47177
L89251 47177
L89139 47121
L89082 47065
L89026 46952
L89026 46784
L89082 46671
L89139 46615
L89251 46559
L89589 46559
L89701 46615
L89757 46671
L89814 46784
L89814 46952
" />
<path d="M89757 45546
L89814 45659
L89814 45884
L89757 45996
L89701 46053
L89589 46109
L89251 46109
L89139 46053
L89082 45996
L89026 45884
L89026 45659
L89082 45546
" />
<path d="M89814 44871
L89757 44984
L89701 45040
L89589 45096
L89251 45096
L89139 45040
L89082 44984
L89026 44871
L89026 44703
L89082 44590
L89139 44534
L89251 44478
L89589 44478
L89701 44534
L89757 44590
L89814 44703
L89814 44871
" />
<path d="M89026 43465
L89814 43465
" />
<path d="M89026 43972
L89645 43972
L89757 43915
L89814 43803
L89814 43634
L89757 43522
L89701 43465
" />
<path d="M89026 42903
L90207 42903
" />
<path d="M89082 42903
L89026 42790
L89026 42565
L89082 42453
L89139 42397
L89251 42340
L89589 42340
L89701 42397
L89757 42453
L89814 42565
L89814 42790
L89757 42903
" />
<path d="M89814 41666
L89757 41778
L89645 41834
L88632 41834
" />
<path d="M89757 40766
L89814 40878
L89814 41103
L89757 41216
L89645 41272
L89195 41272
L89082 41216
L89026 41103
L89026 40878
L89082 40766
L89195 40709
L89307 40709
L89420 41272
" />
<path d="M89814 39135
L89757 39247
L89645 39303
L88632 39303
" />
<path d="M89814 38516
L89757 38628
L89701 38685
L89589 38741
L89251 38741
L89139 38685
L89082 38628
L89026 38516
L89026 38347
L89082 38235
L89139 38179
L89251 38122
L89589 38122
L89701 38179
L89757 38235
L89814 38347
L89814 38516
" />
<path d="M89026 37110
L89982 37110
L90095 37166
L90151 37222
L90207 37335
L90207 37504
L90151 37616
" />
<path d="M89757 37110
L89814 37222
L89814 37447
L89757 37560
L89701 37616
L89589 37672
L89251 37672
L89139 37616
L89082 37560
L89026 37447
L89026 37222
L89082 37110
" />
<path d="M89026 36041
L89982 36041
L90095 36098
L90151 36154
L90207 36266
L90207 36435
L90151 36547
" />
<path d="M89757 36041
L89814 36154
L89814 36379
L89757 36491
L89701 36547
L89589 36604
L89251 36604
L89139 36547
L89082 36491
L89026 36379
L89026 36154
L89082 36041
" />
<path d="M89757 35029
L89814 35141
L89814 35366
L89757 35479
L89645 35535
L89195 35535
L89082 35479
L89026 35366
L89026 35141
L89082 35029
L89195 34973
L89307 34973
L89420 35535
" />
<path d="M89814 34466
L89026 34466
" />
<path d="M89251 34466
L89139 34410
L89082 34354
L89026 34241
L89026 34129
" />
</g>
<g style="fill:#000000; fill-opacity:0.0; 
stroke:#000000; stroke-width:78.7402; stroke-opacity:1; 
stroke-linecap:round; stroke-linejoin:round;">
<path d="M95279 71140
L95279 15140
" />
<path d="M95279 71140
L95279 71140
" />
<path d="M95279 71140
L95279 71140
" />
<path d="M95279 71140
L95279 71140
" />
<path d="M25279 71140
L95279 71140
" />
<path d="M25279 71140
L25279 71140
" />
<path d="M25279 71140
L25279 71140
" />
<path d="M25279 15140
L25279 71140
" />
<path d="M25279 15140
L25279 15140
" />
</g>
<g style="fill:#000000; fill-opacity:0.0; 
stroke:#000000; stroke-width:236.22; stroke-opacity:1; 
stroke-linecap:round; stroke-linejoin:round;">
<text x="35879.7" y="53730.7"
textLength="6662.54" font-size="1574.8" lengthAdjust="spacingAndGlyphs"
text-anchor="middle" opacity="0">Display</text>
<path d="M32983 53674
L32983 52493
L33264 52493
L33433 52549
L33545 52662
L33601 52774
L33658 52999
L33658 53168
L33601 53393
L33545 53505
L33433 53618
L33264 53674
L32983 53674
" />
<path d="M34164 53674
L34164 52887
" />
<path d="M34164 52493
L34108 52549
L34164 52605
L34220 52549
L34164 52493
L34164 52605
" />
<path d="M34670 53618
L34782 53674
L35007 53674
L35120 53618
L35176 53505
L35176 53449
L35120 53337
L35007 53280
L34839 53280
L34726 53224
L34670 53112
L34670 53055
L34726 52943
L34839 52887
L35007 52887
L35120 52943
" />
<path d="M35682 52887
L35682 54068
" />
<path d="M35682 52943
L35795 52887
L36020 52887
L36132 52943
L36189 52999
L36245 53112
L36245 53449
L36189 53562
L36132 53618
L36020 53674
L35795 53674
L35682 53618
" />
<path d="M36920 53674
L36807 53618
L36751 53505
L36751 52493
" />
<path d="M37876 53674
L37876 53055
L37820 52943
L37707 52887
L37482 52887
L37370 52943
" />
<path d="M37876 53618
L37763 53674
L37482 53674
L37370 53618
L37313 53505
L37313 53393
L37370 53280
L37482 53224
L37763 53224
L37876 53168
" />
<path d="M38326 52887
L38607 53674
" />
<path d="M38888 52887
L38607 53674
L38494 53955
L38438 54011
L38326 54068
" />
</g>
<g style="fill:#000000; fill-opacity:0.0; 
stroke:#000000; stroke-width:94.4882; stroke-opacity:1; 
stroke-linecap:round; stroke-linejoin:round;">
<path d="M34916 21382
L36105 21382
" />
<path d="M34916 24296
L36105 24296
" />
<path d="M36105 26871
L36105 18808
" />
<path d="M34916 18808
L38571 18808
" />
<path d="M34916 26871
L38571 26871
" />
<path d="M38571 26871
L38571 18808
" />
<path d="M34916 26871
L34916 18808
" />
<path d="M30019 44215
L30019 43561
" />
<path d="M30019 46309
L30019 45065
" />
<path d="M32539 43813
L32539 43561
" />
<path d="M32539 46309
L32539 45466
" />
<path d="M28035 46309
L28035 43561
" />
<path d="M34523 46309
L34523 43561
" />
<path d="M34523 43561
L28035 43561
" />
<path d="M34523 46309
L28035 46309
" />
<path d="M42347 20729
L44260 20729
" />
<path d="M42331 20721
L42331 19933
" />
<path d="M42331 18319
L43788 18319
" />
<path d="M42331 19146
L42331 18319
" />
</g>
<g style="fill:#000000; fill-opacity:0.0; 
stroke:#000000; stroke-width:118.11; stroke-opacity:1; 
stroke-linecap:round; stroke-linejoin:round;">
<path d="M60041 25746
L57678 25746
" />
<path d="M60395 25037
L60395 25274
" />
<path d="M60631 25037
L60395 25037
" />
<path d="M60631 25274
L60631 25037
" />
<path d="M60395 25274
L60631 25274
" />
<path d="M56458 24959
L56458 19289
" />
<path d="M56458 14722
L56458 17085
" />
<path d="M58584 14722
L56458 14722
" />
<path d="M68033 17085
L68033 15274
" />
<path d="M68033 19289
L68033 24959
" />
<path d="M60041 25746
L60041 26770
" />
<path d="M59411 14959
L58584 14722
" />
<path d="M60277 15116
L59411 14959
" />
<path d="M61182 15234
L60277 15116
" />
<path d="M62245 15274
L61182 15234
" />
<path d="M68033 15274
L62245 15274
" />
</g>
<g style="fill:#000000; fill-opacity:0.0; 
stroke:#000000; stroke-width:94.4882; stroke-opacity:1; 
stroke-linecap:round; stroke-linejoin:round;">
<path d="M32810 21346
L32810 22133
" />
<path d="M34148 22133
L34148 21346
" />
<path d="M67649 30000
L68909 30000
" />
<path d="M68909 30000
L68909 27952
" />
<path d="M67649 30000
L67649 27952
" />
<path d="M61292 28409
L57748 28409
" />
<path d="M62276 31559
L62276 30377
" />
<path d="M57748 33527
L61292 33527
" />
<path d="M56764 30377
L56764 31559
" />
<path d="M41073 16370
L40285 16370
" />
<path d="M40285 17709
L41073 17709
" />
<path d="M69248 44833
L69248 44046
" />
<path d="M67910 44046
L67910 44833
" />
<path d="M36307 44947
L37252 44947
" />
<path d="M37252 46333
L36307 46333
" />
<path d="M39100 30036
L39100 33642
" />
<path d="M39699 29437
L39100 30036
" />
<path d="M43297 30036
L42699 29437
" />
<path d="M43297 33642
L43297 30036
" />
<path d="M42699 29437
L42077 29437
" />
<path d="M39699 29437
L40321 29437
" />
<path d="M39100 33642
L40321 33642
" />
<path d="M43297 33642
L42077 33642
" />
<path d="M37252 44833
L36307 44833
" />
<path d="M36307 43447
L37252 43447
" />
<path d="M41293 21517
L41293 23485
" />
<path d="M43261 21517
L41293 21517
" />
<path d="M42710 27107
L41529 27107
" />
<path d="M42710 27895
L42710 27107
" />
<path d="M42710 22540
L41529 22540
" />
<path d="M42710 21753
L42710 22540
" />
<path d="M43379 27501
L43379 27895
" />
<path d="M44363 27501
L43379 27501
" />
<path d="M44363 22147
L44363 27501
" />
<path d="M43379 22147
L44363 22147
" />
<path d="M43379 21753
L43379 22147
" />
<path d="M44757 27895
L44757 21753
" />
<path d="M41529 27895
L44757 27895
" />
<path d="M41529 21753
L41529 27895
" />
<path d="M44757 21753
L41529 21753
" />
<path d="M36673 40070
L35885 40070
" />
<path d="M35885 41409
L36673 41409
" />
<path d="M35785 36609
L36573 36609
" />
<path d="M36573 35270
L35785 35270
" />
</g>
<g style="fill:#000000; fill-opacity:0.0; 
stroke:#000000; stroke-width:118.11; stroke-opacity:1; 
stroke-linecap:round; stroke-linejoin:round;">
<path d="M39145 37252
L38043 37252
" />
<path d="M39145 41267
L42413 41267
" />
<path d="M39145 37212
L42413 37212
" />
<path d="M39145 41267
L39145 41153
" />
<path d="M42413 41267
L42413 41153
" />
<path d="M42413 37212
L42413 37326
" />
<path d="M39145 37212
L39145 37252
" />
</g>
<g style="fill:#000000; fill-opacity:0.0; 
stroke:#000000; stroke-width:94.4882; stroke-opacity:1; 
stroke-linecap:round; stroke-linejoin:round;">
<path d="M79826 40587
L78779 40587
" />
<path d="M79826 39540
L79826 40587
" />
<path d="M77779 38540
L79826 38540
" />
<path d="M77779 40587
L77779 38540
" />
<path d="M75732 40587
L77779 40587
" />
<path d="M75732 34492
L75732 40587
" />
<path d="M79826 34492
L75732 34492
" />
<path d="M79826 38540
L79826 34492
" />
<path d="M42823 52005
L42823 50037
" />
<path d="M40855 52005
L42823 52005
" />
<path d="M29319 47674
L35658 47674
" />
<path d="M29319 49997
L29319 47674
" />
<path d="M28729 49997
L29319 49997
" />
<path d="M41997 47674
L35658 47674
" />
<path d="M41997 49997
L41997 47674
" />
<path d="M42587 49997
L41997 49997
" />
<path d="M28729 51769
L30146 51769
" />
<path d="M28729 51178
L28729 51769
" />
<path d="M30146 51178
L28729 51178
" />
<path d="M30146 51769
L30146 51178
" />
<path d="M41170 51769
L42587 51769
" />
<path d="M41170 51178
L41170 51769
" />
<path d="M42587 51178
L41170 51178
" />
<path d="M42587 51769
L42587 51178
" />
<path d="M31327 51769
L39989 51769
" />
<path d="M31327 51178
L31327 51769
" />
<path d="M39989 51178
L31327 51178
" />
<path d="M39989 51769
L39989 51178
" />
<path d="M28729 51769
L42587 51769
" />
<path d="M28729 47084
L28729 51769
" />
<path d="M42587 47084
L28729 47084
" />
<path d="M42587 51769
L42587 47084
" />
<path d="M74710 54746
L74710 55533
" />
<path d="M76048 55533
L76048 54746
" />
<path d="M54844 27285
L53387 27285
" />
<path d="M54844 16655
L54844 27285
" />
<path d="M47915 27285
L47915 26616
" />
<path d="M49371 27285
L47915 27285
" />
<path d="M54844 16577
L54844 16734
" />
<path d="M47915 16577
L54844 16577
" />
<path d="M47915 22640
L47915 16577
" />
<path d="M54844 19648
L47915 19648
" />
<path d="M39449 24100
L39449 22052
" />
<path d="M40709 24100
L40709 22052
" />
<path d="M39449 24100
L40709 24100
" />
<path d="M52286 45412
L52286 44467
" />
<path d="M53672 44467
L53672 45412
" />
<path d="M71749 30900
L71749 28852
" />
<path d="M73009 30900
L73009 28852
" />
<path d="M71749 30900
L73009 30900
" />
<path d="M69849 30900
L71109 30900
" />
<path d="M71109 30900
L71109 28852
" />
<path d="M69849 30900
L69849 28852
" />
<path d="M48246 31229
L48246 33450
" />
<path d="M52671 32340
L51774 32340
" />
<path d="M46687 32340
L47585 32340
" />
<path d="M51774 31229
L47585 31229
" />
<path d="M51774 33450
L51774 31229
" />
<path d="M47585 33450
L51774 33450
" />
<path d="M47585 31229
L47585 33450
" />
<path d="M85067.1 55434.7 A787.402 787.402 0.0 0 0 83492.3 55434.7 " />
<path d="M82098 55434
L83492 55434
" />
<path d="M82098 41245
L82098 55434
" />
<path d="M86460 41245
L82098 41245
" />
<path d="M86460 55434
L86460 41245
" />
<path d="M85067 55434
L86460 55434
" />
<path d="M32694 34568
L32694 29836
" />
<path d="M38064 32796
L38064 29836
" />
<path d="M32694 29836
L33686 29836
" />
<path d="M38064 29836
L37072 29836
" />
<path d="M32173 35470
L31385 35470
" />
<path d="M31385 36809
L32173 36809
" />
<path d="M40772 19067
L40772 20012
" />
<path d="M39386 20012
L39386 19067
" />
<path d="M72064 21477
L72064 22659
" />
<path d="M73048 24627
L76592 24627
" />
<path d="M77576 22659
L77576 21477
" />
<path d="M76592 19509
L73048 19509
" />
<path d="M55810 44446
L55810 45233
" />
<path d="M57148 45233
L57148 44446
" />
</g>
<g style="fill:#000000; fill-opacity:0.0; 
stroke:#000000; stroke-width:118.11; stroke-opacity:1; 
stroke-linecap:round; stroke-linejoin:round;">
<path d="M73779 15699
L75354 15699
" />
<path d="M72204 15699
L72913 15699
" />
<circle cx="71417.5" cy="15699.3" r="728.346" /> 
<circle cx="76141.9" cy="15699.3" r="728.346" /> 
</g>
<g style="fill:#000000; fill-opacity:0.0; 
stroke:#000000; stroke-width:393.701; stroke-opacity:1; 
stroke-linecap:round; stroke-linejoin:round;">
</g>
<g style="fill:#000000; fill-opacity:1.0; 
stroke:#000000; stroke-width:0; stroke-opacity:1; 
stroke-linecap:round; stroke-linejoin:round;">
<circle cx="73779.7" cy="15699.3" r="334.646" /> 
</g>
<g style="fill:#000000; fill-opacity:0.0; 
stroke:#000000; stroke-width:118.11; stroke-opacity:1; 
stroke-linecap:round; stroke-linejoin:round;">
<path d="M74311.2 15108.7 A794.506 794.506 0.0 1 0 74370.2 16230.7 " />
</g>
<g style="fill:#000000; fill-opacity:1.0; 
stroke:#000000; stroke-width:7.87402; stroke-opacity:1; 
stroke-linecap:round; stroke-linejoin:round;">
<path style="fill:#000000; fill-opacity:1.0; 
stroke:#000000; stroke-width:7.87402; stroke-opacity:1; 
stroke-linecap:round; stroke-linejoin:round;fill-rule:evenodd;"
d="M 94320.9,37420.8
94315.1,37438
94302.2,37452.5
94279.5,37464.6
94244.7,37474.4
94195.1,37482.3
94128.4,37488.5
94041.9,37493
93933.3,37496.3
93800,37498.4
93639.6,37499.7
93449.4,37500.3
93227.2,37500.4
92970.3,37500.3
92676.2,37500.2
92629.7,37500.2
92334.1,37500.1
92076,37499.9
91852.7,37499.5
91661.9,37498.8
91500.7,37497.9
91366.9,37496.6
91257.7,37494.8
91170.6,37492.7
91103.2,37490
91052.7,37486.8
91016.7,37483.1
90992.7,37478.6
90978,37473.5
90971.1,37468.8
90965.5,37460
90960.6,37444.1
90956.4,37418.5
90952.7,37380.8
90949.7,37328.3
90947.1,37258.6
90945,37169.3
90943.3,37057.8
90942,36921.6
90941.1,36758.2
90940.4,36565.2
90940,36340
90939.8,36080.1
90939.7,35783.1
90939.7,35740.2
90939.8,35438
90940,35173.3
90940.4,34943.5
90941,34746.3
90941.9,34579.1
90943.1,34439.4
90944.8,34324.7
90946.8,34232.6
90949.3,34160.4
90952.3,34105.8
90955.9,34066.2
90960,34039.1
90964.8,34022
90970.3,34012.5
90971.1,34011.6
90980,34005.9
90996.1,34000.9
91022,33996.6
91060.3,33993
91113.5,33989.9
91184.2,33987.3
91274.9,33985.2
91388.2,33983.6
91526.6,33982.3
91692.7,33981.4
91889,33980.8
92118,33980.4
92382.5,33980.2
92629.7,33980.2
92925.3,33980.3
93183.4,33980.5
93406.6,33980.9
93597.5,33981.6
93758.6,33982.5
93853.9,33983.5
93853.9,34200.2
93834.3,34208.4
93791.6,34229.1
93769.7,34240.2
93751.5,34248.8
93731.3,34256.1
93705.8,34262.1
93671.6,34267.1
93625.4,34271
93563.9,34274.1
93483.7,34276.4
93381.6,34278
93254.2,34279.1
93098.2,34279.8
92910.2,34280.1
92687.1,34280.2
92579.5,34280.2
92372,34279.9
92176.5,34279.1
91996.6,34277.8
91835.9,34276.1
91698.2,34274
91587,34271.6
91506.1,34268.9
91459.2,34266
91448.7,34264
91417.4,34244.8
91374.7,34224.4
91319.7,34201.1
91320,34615.6
91320.8,34737.8
91322.7,34843.6
91325.6,34927.6
91329.3,34984.3
91333.6,35008.2
91335,35008
91361.7,34984.4
91407.5,34956.2
91413.7,34953
91443.1,34941.2
91482.6,34932.6
91538.3,34926.6
91616,34922.8
91721.6,34920.8
91861,34920.2
91868.7,34920.2
92008.6,34921.2
92120.7,34924
92202,34928.4
92248.9,34934.4
92259.7,34939.7
92244.4,34963
92207.5,34992.7
92204.7,34994.5
92159.8,35026.4
92129.7,35053.3
92100.5,35077.3
92051.4,35108.8
92032.6,35119.5
91979.7,35152.7
91909.8,35202
91836.3,35258
91822.6,35269
91710.1,35354.1
91602.6,35425.3
91506.2,35479.1
91427.4,35511.7
91381.3,35520.2
91319.7,35520.2
91319.7,36407.2
91330.5,36397.6
91330.5,36520.2
91327.1,36539.2
91324.2,36592
91321.9,36672.6
91320.3,36774.7
91319.7,36892.2
91319.7,36900.2
91320.3,37039.4
91322.4,37142.6
91326.1,37214
91331.8,37257.6
91339.7,37277.3
91344.7,37279.6
91379.3,37267.8
91408.5,37249.6
91423.2,37242.3
91448.8,37236.3
91488.7,37231.5
91546.5,37227.7
91625.5,37224.8
91729.2,37222.7
91861.1,37221.4
92024.7,37220.6
92223.5,37220.2
92313.5,37220.2
93179.7,37220.2
93179.7,36539.2
93120.7,36569.7
93100.3,36577.6
93070.2,36584
93026.5,36589.2
92965.4,36593.1
92883.1,36596.1
92775.8,36598.1
92639.7,36599.4
92471,36600
92279.9,36600.2
92081.7,36600.1
91919.4,36599.7
91789,36598.8
91686.4,36597.2
91607.4,36594.8
91548,36591.3
91504.1,36586.5
91471.7,36580.3
91446.6,36572.5
91424.9,36562.8
91419.7,36560.2
91369.7,36535.9
91336.3,36521.7
91330.5,36520.2
91330.5,36397.6
91374.5,36358.7
91413.3,36324.1
91437.7,36301.9
91439.5,36300.2
91489.2,36254.7
91555.5,36198.4
91628.5,36139.3
91698,36085.4
91754.2,36044.6
91779.3,36028.7
91829.6,35997
91901.5,35947
91985.5,35885.7
92072,35820.1
92151.8,35757.2
92210.7,35708.1
92271.4,35660.5
92337.2,35615.9
92342.6,35612.6
92498.6,35512.4
92601.5,35437
92673.2,35382
92742.1,35446.1
92804.4,35501.3
92888.4,35572.3
92984.1,35650.5
93081,35727.7
93169,35795.5
93199.5,35818.3
93498.7,36058.3
93701.1,36246.7
93859.7,36403.2
93859.7,35973.9
93859.6,35828
93858.5,35717.4
93855.4,35637
93849,35582.1
93838.2,35547.8
93821.9,35529.3
93798.9,35521.7
93768.1,35520.2
93752.6,35520.2
93710.5,35507.9
93657.6,35477.2
93639.3,35463.3
93578.4,35417.1
93506.8,35367.7
93479.7,35350.3
93427.1,35316.2
93390,35289.7
93379.7,35280.5
93356.6,35257.1
93312.7,35218.3
93256.8,35171.3
93197.3,35123
93142.8,35080.4
93102.1,35050.5
93084,35040.2
93060.8,35027
93023.2,34993.9
93009.7,34980.2
92952.2,34920.2
93282.8,34920.2
93426.7,34921.5
93539.2,34925.9
93628.6,34934.8
93703.6,34949
93772.5,34969.7
93824.7,34989.9
93836.6,34992.5
93845.4,34985.6
93851.7,34964.4
93855.8,34923.9
93858.2,34859.4
93859.3,34765.7
93859.7,34638.2
93859.7,34602.3
93859.4,34480.4
93858.7,34373.4
93857.5,34287.1
93856,34227.7
93854.3,34201.1
93853.9,34200.2
93853.9,33983.5
93892.5,33983.8
94001.7,33985.6
94088.7,33987.7
94156.2,33990.4
94206.7,33993.6
94242.6,33997.3
94266.7,34001.7
94281.4,34006.9
94288.3,34011.6
94294.7,34021.4
94300.2,34039
94304.9,34067.1
94308.7,34108.8
94311.9,34167
94314.4,34244.5
94316.3,34344.3
94317.7,34469.3
94318.7,34622.4
94319.3,34806.5
94319.6,35024.6
94319.7,35279.5
94319.7,36560.2
94243.9,36560.2
94152.7,36576
94059.2,36617.8
93979.7,36677
93944.9,36718.2
93907.7,36807.6
93899.7,36910.7
93918.3,37016.3
93961.5,37113.2
94026.9,37190.2
94042.6,37202.2
94121.9,37239.3
94212.9,37256.3
94319.7,37265.2
94319.7,37351.2
94320.7,37377.7
94321.9,37400.8
Z" /> 
<path style="fill:#000000; fill-opacity:1.0; 
stroke:#000000; stroke-width:7.87402; stroke-opacity:1; 
stroke-linecap:round; stroke-linejoin:round;fill-rule:evenodd;"
d="M 93877.1,39069.1
93869.3,39101.5
93851.5,39157.4
93823,39232.5
93788.2,39317
93751.2,39401.3
93716.3,39475.9
93687.7,39530.9
93671.3,39555.2
93653.3,39547.6
93610,39522.1
93549.3,39483.9
93478.7,39437.9
93405.9,39389.2
93338.6,39343
93284.5,39304.1
93252,39278.5
93254,39256.1
93277.9,39215.1
93304.6,39180.7
93377.2,39066.4
93413.1,38936.6
93414.1,38811.9
93382.1,38677.5
93316.6,38564
93218.3,38471.9
93088.1,38401.6
92926.9,38353.5
92735.3,38328.1
92519.7,38325.6
92324.7,38342.5
92162.6,38378
92030,38433.6
91923.7,38510.8
91840.5,38611
91826,38634.4
91794.3,38695.1
91777.4,38751.4
91771.3,38820.5
91771,38870.2
91783.4,38996
91821.1,39105.2
91889.4,39210.8
91922.5,39250.3
91957.5,39293
91976.4,39321.6
91977.4,39327.6
91951.1,39345.1
91900.7,39376
91833.7,39416
91758,39460.5
91681.1,39505.1
91610.7,39545.3
91554.5,39576.6
91520.3,39594.7
91513.4,39597.2
91502.9,39577.4
91478.7,39531.8
91446,39470.2
91444.1,39466.5
91380.8,39338.7
91337.2,39226.2
91309.6,39114.4
91294.2,38989
91288.1,38870.2
91287.1,38718.4
91294.6,38598.7
91306.8,38527.2
91373.6,38344.3
91475.2,38176.5
91608.1,38027.1
91769,37899.2
91954.3,37795.9
92160.8,37720.5
92173.7,37717
92320.6,37688.4
92489.2,37673.5
92665.3,37672.3
92834.8,37684.8
92983.6,37711
93008.8,37717.6
93224.2,37797.7
93417.9,37910.1
93587.1,38052.6
93728.9,38223.5
93740.3,38240.2
93813.2,38380.1
93864.9,38543.9
93893.9,38720.7
93898.5,38899.4
Z" /> 
<path style="fill:#000000; fill-opacity:1.0; 
stroke:#000000; stroke-width:7.87402; stroke-opacity:1; 
stroke-linecap:round; stroke-linejoin:round;fill-rule:evenodd;"
d="M 93210.9,40709.2
93179.5,40847.7
93144.3,40941.4
93100.3,41014.3
93042.4,41079.4
92999.2,41121.2
92958.6,41155.5
92915.9,41182.9
92866.8,41204.5
92806.7,41221
92731.1,41233.3
92635.6,41242.2
92515.5,41248.5
92366.6,41253.2
92184.1,41257
92088.8,41258.7
91906.1,41262.1
91759.2,41265.3
91643.6,41268.8
91555.2,41272.6
91489.6,41277.3
91442.5,41282.9
91409.6,41289.8
91386.6,41298.4
91373.8,41305.7
91319.7,41341.1
91319.7,40702.7
91440.6,40690.2
91387.2,40611.9
91325.2,40489
91289,40346.6
91280.4,40197.1
91300.9,40053
91308.5,40026.7
91373.3,39879.9
91465.8,39761.1
91583.4,39672.2
91723.2,39615.3
91882.5,39592.4
91899.7,39592
91922.6,39592.5
91922.6,40166
91852.2,40169.3
91828.1,40177.3
91764.7,40226.6
91721.8,40301.4
91703,40390.8
91711.7,40484.3
91721,40513.9
91753.7,40582.5
91795.2,40626.4
91854.3,40650.4
91940.1,40659.5
91983.2,40660.2
92139.7,40660.2
92139.7,40529.6
92127.9,40400.6
92094.1,40291.5
92046.2,40216.3
91993.6,40182.8
91922.6,40166
91922.6,39592.5
91989.7,39594.1
92058.5,39604.8
92124.3,39628
92163.8,39646.4
92287.1,39728.6
92386.2,39842.2
92460.9,39986.9
92511,40162.1
92536.2,40367.3
92539.3,40477.8
92539.7,40665.5
92621.2,40654.5
92710.4,40626.2
92772.2,40569.6
92806.3,40485.6
92812.6,40375.4
92790.7,40239.8
92748.1,40100.4
92726.6,40033.9
92714.8,39982.8
92715.2,39957.7
92715.4,39957.4
92740.4,39943.6
92792.4,39919.9
92861,39890.5
92936.1,39859.7
93007.3,39831.6
93064.5,39810.5
93097.3,39800.5
93099.9,39800.2
93114.6,39817.4
93119.7,39851.6
93124.5,39892.2
93137.6,39960.6
93156.7,40045.8
93171.7,40106.6
93211.7,40315.9
93224.8,40519.5
Z" /> 
<path style="fill:#000000; fill-opacity:1.0; 
stroke:#000000; stroke-width:7.87402; stroke-opacity:1; 
stroke-linecap:round; stroke-linejoin:round;fill-rule:evenodd;"
d="M 92734.7,43244.5
92474.9,43245.7
92252.1,43246.9
92063.3,43248.3
91905.5,43249.8
91775.6,43251.6
91670.7,43253.8
91587.6,43256.5
91523.5,43259.8
91475.3,43263.7
91440,43268.3
91414.5,43273.8
91395.9,43280.2
91384.7,43285.7
91319.7,43321.2
91319.7,42680.2
91379.7,42680.2
91421.9,42677.6
91439.7,42671.2
91439.7,42671.1
91429.5,42650.5
91403.7,42609.3
91389.6,42588.2
91336.7,42484
91299.7,42358.3
91281,42225.3
91282.9,42099.2
91298.4,42020.2
91362.4,41875.3
91458.3,41745.2
91578.5,41639
91658.7,41590.7
91782.8,41537.6
91913.6,41503.1
92062.1,41484.9
92208.9,41480.5
92219.7,41481.1
92219.7,42111.2
92081.4,42114.7
91976.2,42125.4
91897.8,42145.3
91839.8,42176.3
91795.6,42220.3
91778,42245.7
91748.1,42329.5
91750.4,42428.5
91784.6,42534.8
91794,42554
91833.6,42630.2
92265.9,42635.6
92698.3,42641
92732.9,42588.1
92753.9,42538.1
92770.2,42467.5
92775.7,42421.8
92778.1,42352.2
92770.2,42305.8
92747.7,42266.2
92731.2,42245.7
92673.3,42192.6
92598,42154.1
92500,42128.7
92373.7,42114.8
92219.7,42111.2
92219.7,41481.1
92441.9,41493.5
92646.5,41531.2
92821.8,41593.1
92967,41678.7
93081.1,41787.5
93163.3,41918.9
93212.9,42072.4
93218.4,42103.3
93224.9,42194.3
93219.5,42294.6
93204.2,42394.3
93181,42483.4
93152,42552.2
93120,42590
93100.7,42606.4
93104.7,42619.1
93135.1,42628.3
93194.8,42634.6
93287,42638.4
93414.7,42640
93485.5,42640.2
93622.5,42639.8
93726,42638.2
93802.1,42634.9
93857.2,42629.4
93897.7,42621.2
93930,42609.7
93945.5,42602.4
94019.7,42564.5
94019.7,43238.8
Z" /> 
<path style="fill:#000000; fill-opacity:1.0; 
stroke:#000000; stroke-width:7.87402; stroke-opacity:1; 
stroke-linecap:round; stroke-linejoin:round;fill-rule:evenodd;"
d="M 82505.1,30775.5
82506.4,30724.7
82508.8,30688
82511.3,30672
82517.5,30648.5
83242.3,30648.5
83236.6,30813.5
83236.8,30978.7
83250.1,31131.6
83277.4,31276.9
83319.7,31419.1
83378,31562.9
83406.4,31622.5
83484.4,31764.7
83572.1,31892.7
83673.7,32012.7
83718.8,32059.4
83856.7,32182.7
84006.9,32289.4
84168.2,32379
84339.7,32450.8
84520.3,32504.4
84593.2,32520.3
84659.4,32529.8
84740.5,32536.2
84830.8,32539.4
84924.8,32539.5
85016.6,32536.4
85100.6,32530.1
85171.2,32520.7
85176.6,32519.7
85356.7,32475.7
85528.5,32413.2
85690.9,32333.2
85842.6,32236.6
85982.6,32124.6
86109.7,31998.1
86222.8,31858.2
86320.6,31705.8
86402,31542
86456.5,31397.5
86481.4,31316.3
86500.3,31241.7
86513.9,31168.6
86523,31092.1
86528.3,31006.9
86530.4,30908.1
86530.5,30864.7
86530.2,30648.5
87252.3,30648.5
87258.5,30672
87260.9,30692
87262.5,30729
87263.5,30779.2
87263.7,30838.7
87263.4,30903.9
87262.4,30970.7
87261,31035.5
87259,31094.5
87256.5,31143.7
87253.6,31179.4
87253.5,31179.8
87240.6,31268.8
87221.2,31369.2
87197.1,31473.5
87170,31574
87150.2,31637.8
87070.6,31846.1
86973.8,32043.6
86860.6,32229.3
86732,32402.7
86589,32562.8
86432.5,32708.9
86263.4,32840.2
86082.6,32956
85891.2,33055.5
85690,33137.8
85480,33202.3
85262.1,33248
85192.2,33258.4
85125.4,33265.1
85043.6,33269.7
84952.1,33272.2
84856.8,33272.6
84763,33271
84676.6,33267.2
84602.9,33261.4
84577.6,33258.4
84355.1,33218.3
84140,33158.9
83933,33080.4
83734.5,32983
83545.1,32866.9
83457.8,32804.8
83286.6,32664.4
83130.4,32510.1
82989.8,32342.9
82865.6,32163.9
82758.4,31974.1
82668.6,31774.7
82597.1,31566.7
82544.4,31351.2
82519.7,31200.9
82515.5,31159.6
82511.9,31105.4
82509,31042.1
82506.8,30973.6
82505.4,30903.8
82504.8,30836.5
Z" /> 
<path style="fill:#000000; fill-opacity:1.0; 
stroke:#000000; stroke-width:7.87402; stroke-opacity:1; 
stroke-linecap:round; stroke-linejoin:round;fill-rule:evenodd;"
d="M 83239.1,26606.9
83239.3,26838.6
83239.6,26918.9
83240.6,26982.4
83242.6,27033.2
83245.8,27075.3
83250.6,27112.6
83257.1,27149.4
83262.7,27176.1
83312.6,27357.1
83380.5,27529.8
83465.5,27692.8
83566.7,27844.7
83683.2,27984.3
83813.9,28109.9
83957.9,28220.4
83987.1,28239.8
84055.6,28280.5
84135.5,28322.2
84221.3,28362.4
84307.8,28398.7
84389.5,28428.9
84461.1,28450.5
84481.3,28455.3
84515.1,28462.7
84515.1,27075.6
85254.7,27075.6
85254.7,28462.7
85288.5,28455.3
85360.5,28435.6
85443.8,28406.1
85533.1,28369.2
85622.9,28327.4
85707.7,28283.1
85782,28238.7
85793.3,28231.2
85944.1,28118
86079.4,27991.1
86198.7,27851.2
86301.5,27699.2
86387.3,27535.7
86455.4,27361.7
86505.5,27177.8
86506.5,27173.3
86514.8,27131.9
86521,27093.8
86525.4,27054.7
86528.3,27010.4
86529.9,26956.6
86530.6,26889.1
86530.7,26833.4
86530.7,26606.9
87265.1,26606.9
87263.8,26833.4
87262.9,26905.8
87261.4,26976.5
87259.3,27040.9
87256.8,27094.4
87254.1,27132.6
87253.5,27138.1
87225,27315.6
87180,27498.2
87120.1,27680.8
87047,27858.6
86962.4,28026.4
86937.3,28070.4
86854.2,28199.1
86756.5,28329.8
86648.5,28457.2
86534.8,28576.1
86419.7,28681.5
86384.9,28710.3
86210.4,28837.3
86023.3,28948.6
85825.4,29043.3
85618.7,29120.7
85405,29180
85186.1,29220.4
85171.4,29222.4
85114.9,29227.9
85043.5,29231.8
84962.3,29234.1
84876.6,29234.8
84791.4,29233.9
84712.2,29231.4
84644.1,29227.3
84598.4,29222.6
84374.1,29181.7
84157.1,29122.4
83948.8,29045.4
83750.5,28951.1
83563.3,28840.1
83388.6,28713
83385.3,28710.3
83225.5,28568.3
83078.6,28411.5
82946,28241.8
82828.8,28061.1
82728.1,27871.3
82645.3,27674.4
82581.5,27472.2
82562.2,27393.3
82541.8,27295.7
82526.6,27205
82515.9,27115.4
82509.1,27021
82505.7,26916
82504.9,26828.2
82504.7,26606.9
Z" /> 
</g>
<g style="fill:#000000; fill-opacity:0.0; 
stroke:#000000; stroke-width:94.4882; stroke-opacity:1; 
stroke-linecap:round; stroke-linejoin:round;">
<path d="M36179.7 36853.6 A1338.58 1338.58 0.0 0 0 36179.7 39530.7 " />
<path d="M36179.7 39530.7 A1338.58 1338.58 0.0 0 0 36179.7 36853.6 " />
<path d="M73474.2 52352.8 A787.402 787.402 0.0 0 0 73474.2 53927.6 " />
<path d="M73474 55321
L73474 53927
" />
<path d="M45285 55321
L73474 55321
" />
<path d="M45285 50959
L45285 55321
" />
<path d="M73474 50959
L45285 50959
" />
<path d="M73474 52352
L73474 50959
" />
<path d="M45385 39127
L45385 40521
" />
<path d="M45385 40521
L73574 40521
" />
<path d="M73574 40521
L73574 36159
" />
<path d="M73574 36159
L45385 36159
" />
<path d="M45385 36159
L45385 37552
" />
<path d="M45385.2 39127.6 A787.402 787.402 0.0 0 0 45385.2 37552.8 " />
<path d="M69072 32167
L69072 33112
" />
<path d="M67686 33112
L67686 32167
" />
<path d="M65372 28167
L65372 29112
" />
<path d="M63986 29112
L63986 28167
" />
<path d="M71786 33512
L71786 32567
" />
<path d="M73172 32567
L73172 33512
" />
<path d="M63572 63167
L63572 64112
" />
<path d="M62186 64112
L62186 63167
" />
<path d="M36966 68518
L36966 65289
" />
<path d="M36966 65289
L30824 65289
" />
<path d="M30824 65289
L30824 68518
" />
<path d="M30824 68518
L36966 68518
" />
<path d="M36966 67140
L36572 67140
" />
<path d="M36572 67140
L36572 68124
" />
<path d="M36572 68124
L31218 68124
" />
<path d="M31218 68124
L31218 67140
" />
<path d="M31218 67140
L30824 67140
" />
<path d="M36966 66470
L36178 66470
" />
<path d="M36178 66470
L36178 65289
" />
<path d="M30824 66470
L31611 66470
" />
<path d="M31611 66470
L31611 65289
" />
<path d="M37202 67022
L37202 65053
" />
<path d="M37202 65053
L35234 65053
" />
<path d="M75572 63167
L75572 64112
" />
<path d="M74186 64112
L74186 63167
" />
<path d="M79171 65053
L77202 65053
" />
<path d="M79171 67022
L79171 65053
" />
<path d="M73580 66470
L73580 65289
" />
<path d="M72793 66470
L73580 66470
" />
<path d="M78147 66470
L78147 65289
" />
<path d="M78934 66470
L78147 66470
" />
<path d="M73186 67140
L72793 67140
" />
<path d="M73186 68124
L73186 67140
" />
<path d="M78541 68124
L73186 68124
" />
<path d="M78541 67140
L78541 68124
" />
<path d="M78934 67140
L78541 67140
" />
<path d="M72793 68518
L78934 68518
" />
<path d="M72793 65289
L72793 68518
" />
<path d="M78934 65289
L72793 65289
" />
<path d="M78934 68518
L78934 65289
" />
<path d="M69273 60470
L68485 60470
" />
<path d="M68485 61809
L69273 61809
" />
<path d="M61485 61809
L62273 61809
" />
<path d="M62273 60470
L61485 60470
" />
<path d="M41273 60470
L40485 60470
" />
<path d="M40485 61809
L41273 61809
" />
<path d="M33485 61809
L34273 61809
" />
<path d="M34273 60470
L33485 60470
" />
<path d="M34186 64112
L34186 63167
" />
<path d="M35572 63167
L35572 64112
" />
<path d="M47485 61809
L48273 61809
" />
<path d="M48273 60470
L47485 60470
" />
<path d="M55273 60470
L54485 60470
" />
<path d="M54485 61809
L55273 61809
" />
<path d="M75485 61809
L76273 61809
" />
<path d="M76273 60470
L75485 60470
" />
<path d="M83273 60470
L82485 60470
" />
<path d="M82485 61809
L83273 61809
" />
<path d="M32186 64112
L32186 63167
" />
<path d="M33572 63167
L33572 64112
" />
<path d="M39186 64112
L39186 63167
" />
<path d="M40572 63167
L40572 64112
" />
<path d="M47572 63167
L47572 64112
" />
<path d="M46186 64112
L46186 63167
" />
<path d="M53186 64112
L53186 63167
" />
<path d="M54572 63167
L54572 64112
" />
<path d="M60186 64112
L60186 63167
" />
<path d="M61572 63167
L61572 64112
" />
<path d="M68572 63167
L68572 64112
" />
<path d="M67186 64112
L67186 63167
" />
<path d="M81186 64112
L81186 63167
" />
<path d="M82572 63167
L82572 64112
" />
<path d="M41186 64112
L41186 63167
" />
<path d="M42572 63167
L42572 64112
" />
<path d="M49572 63167
L49572 64112
" />
<path d="M48186 64112
L48186 63167
" />
<path d="M55186 64112
L55186 63167
" />
<path d="M56572 63167
L56572 64112
" />
<path d="M69186 64112
L69186 63167
" />
<path d="M70572 63167
L70572 64112
" />
<path d="M77572 63167
L77572 64112
" />
<path d="M76186 64112
L76186 63167
" />
<path d="M83186 64112
L83186 63167
" />
<path d="M84572 63167
L84572 64112
" />
<path d="M32252 38833
L31307 38833
" />
<path d="M31307 37447
L32252 37447
" />
<path d="M60240.3 42652 A1988.19 1988.19 0.0 0 0 60240.3 46628.4 " />
<path d="M65161.6 46628.4 A1988.19 1988.19 0.0 0 0 65161.6 42652 " />
<path d="M65161 42652
L60240 42652
" />
<path d="M65161 46628
L60240 46628
" />
<path d="M44202 65053
L42234 65053
" />
<path d="M44202 67022
L44202 65053
" />
<path d="M38611 66470
L38611 65289
" />
<path d="M37824 66470
L38611 66470
" />
<path d="M43178 66470
L43178 65289
" />
<path d="M43966 66470
L43178 66470
" />
<path d="M38218 67140
L37824 67140
" />
<path d="M38218 68124
L38218 67140
" />
<path d="M43572 68124
L38218 68124
" />
<path d="M43572 67140
L43572 68124
" />
<path d="M43966 67140
L43572 67140
" />
<path d="M37824 68518
L43966 68518
" />
<path d="M37824 65289
L37824 68518
" />
<path d="M43966 65289
L37824 65289
" />
<path d="M43966 68518
L43966 65289
" />
<path d="M51202 65053
L49234 65053
" />
<path d="M51202 67022
L51202 65053
" />
<path d="M45611 66470
L45611 65289
" />
<path d="M44824 66470
L45611 66470
" />
<path d="M50178 66470
L50178 65289
" />
<path d="M50966 66470
L50178 66470
" />
<path d="M45218 67140
L44824 67140
" />
<path d="M45218 68124
L45218 67140
" />
<path d="M50572 68124
L45218 68124
" />
<path d="M50572 67140
L50572 68124
" />
<path d="M50966 67140
L50572 67140
" />
<path d="M44824 68518
L50966 68518
" />
<path d="M44824 65289
L44824 68518
" />
<path d="M50966 65289
L44824 65289
" />
<path d="M50966 68518
L50966 65289
" />
<path d="M58202 65053
L56234 65053
" />
<path d="M58202 67022
L58202 65053
" />
<path d="M52611 66470
L52611 65289
" />
<path d="M51824 66470
L52611 66470
" />
<path d="M57178 66470
L57178 65289
" />
<path d="M57966 66470
L57178 66470
" />
<path d="M52218 67140
L51824 67140
" />
<path d="M52218 68124
L52218 67140
" />
<path d="M57572 68124
L52218 68124
" />
<path d="M57572 67140
L57572 68124
" />
<path d="M57966 67140
L57572 67140
" />
<path d="M51824 68518
L57966 68518
" />
<path d="M51824 65289
L51824 68518
" />
<path d="M57966 65289
L51824 65289
" />
<path d="M57966 68518
L57966 65289
" />
<path d="M65202 65053
L63234 65053
" />
<path d="M65202 67022
L65202 65053
" />
<path d="M59611 66470
L59611 65289
" />
<path d="M58824 66470
L59611 66470
" />
<path d="M64178 66470
L64178 65289
" />
<path d="M64966 66470
L64178 66470
" />
<path d="M59218 67140
L58824 67140
" />
<path d="M59218 68124
L59218 67140
" />
<path d="M64572 68124
L59218 68124
" />
<path d="M64572 67140
L64572 68124
" />
<path d="M64966 67140
L64572 67140
" />
<path d="M58824 68518
L64966 68518
" />
<path d="M58824 65289
L58824 68518
" />
<path d="M64966 65289
L58824 65289
" />
<path d="M64966 68518
L64966 65289
" />
<path d="M71934 68518
L71934 65289
" />
<path d="M71934 65289
L65793 65289
" />
<path d="M65793 65289
L65793 68518
" />
<path d="M65793 68518
L71934 68518
" />
<path d="M71934 67140
L71541 67140
" />
<path d="M71541 67140
L71541 68124
" />
<path d="M71541 68124
L66186 68124
" />
<path d="M66186 68124
L66186 67140
" />
<path d="M66186 67140
L65793 67140
" />
<path d="M71934 66470
L71147 66470
" />
<path d="M71147 66470
L71147 65289
" />
<path d="M65793 66470
L66580 66470
" />
<path d="M66580 66470
L66580 65289
" />
<path d="M72171 67022
L72171 65053
" />
<path d="M72171 65053
L70202 65053
" />
<path d="M85934 68518
L85934 65289
" />
<path d="M85934 65289
L79793 65289
" />
<path d="M79793 65289
L79793 68518
" />
<path d="M79793 68518
L85934 68518
" />
<path d="M85934 67140
L85541 67140
" />
<path d="M85541 67140
L85541 68124
" />
<path d="M85541 68124
L80186 68124
" />
<path d="M80186 68124
L80186 67140
" />
<path d="M80186 67140
L79793 67140
" />
<path d="M85934 66470
L85147 66470
" />
<path d="M85147 66470
L85147 65289
" />
<path d="M79793 66470
L80580 66470
" />
<path d="M80580 66470
L80580 65289
" />
<path d="M86171 67022
L86171 65053
" />
<path d="M86171 65053
L84202 65053
" />
<g >
</g>
<g >
</g>
<g >
</g>
<g >
</g>
<g >
</g>
<g >
</g>
<g >
</g>
<g >
</g>
<g >
</g>
<g >
</g>
<g >
</g>
<g >
</g>
<g >
</g>
<g >
</g>
<g >
</g>
<g >
</g>
<g >
</g>
<g >
</g>
<g >
</g>
<g >
</g>
<g >
</g>
<g >
</g>
<g >
</g>
<g >
</g>
<g >
</g>
<g >
</g>
<g >
</g>
<g >
</g>
<g >
</g>
<g >
</g>
<g >
</g>
<g >
</g>
<g >
</g>
<g >
</g>
<g >
</g>
<g >
</g>
<g >
</g>
<g >
</g>
<g >
</g>
<g >
</g>
<g >
</g>
<g >
</g>
<g >
</g>
<g >
</g>
<g >
</g>
<g >
</g>
<g >
</g>
<g >
</g>
<g >
</g>
<g >
</g>
<g >
</g>
<g >
</g>
<g >
</g>
<g >
</g>
<g >
</g>
<g >
</g>
<g >
</g>
<g >
</g>
<g >
</g>
<g >
</g>
<g >
</g>
<g >
</g>
<g >
</g>
<g >
</g>
<g >
</g>
<g >
</g>
<g >
</g>
<g >
</g>
<g >
</g>
<g >
</g>
<g >
</g>
<g >
</g>
<g >
</g>
<g >
</g>
<g >
</g>
<g >
</g>
<g >
</g>
<g >
</g>
<g >
</g>
</g>
<g style="fill:#000000; fill-opacity:0.0; 
stroke:#000000; stroke-width:94.4882; stroke-opacity:1; 
stroke-linecap:round; stroke-linejoin:round;">
</g>
<g style="fill:#000000; fill-opacity:0.0; 
stroke:#000000; stroke-width:118.11; stroke-opacity:1; 
stroke-linecap:round; stroke-linejoin:round;">
<text x="29679.7" y="23615.8"
textLength="3681.66" font-size="1049.87" lengthAdjust="spacingAndGlyphs"
text-anchor="middle" opacity="0">REF**</text>
<path d="M28629 23578
L28367 23203
" />
<path d="M28179 23578
L28179 22790
L28479 22790
L28554 22828
L28592 22865
L28629 22940
L28629 23053
L28592 23128
L28554 23165
L28479 23203
L28179 23203
" />
<path d="M28967 23165
L29229 23165
" />
<path d="M29342 23578
L28967 23578
L28967 22790
L29342 22790
" />
<path d="M29942 23165
L29679 23165
" />
<path d="M29679 23578
L29679 22790
L30054 22790
" />
<path d="M30467 22790
L30467 22978
" />
<path d="M30279 22903
L30467 22978
L30654 22903
" />
<path d="M30354 23128
L30467 22978
L30579 23128
" />
<path d="M31067 22790
L31067 22978
" />
<path d="M30879 22903
L31067 22978
L31254 22903
" />
<path d="M30954 23128
L31067 22978
L31179 23128
" />
<g transform="rotate(-90 34129.3 22840.2)">
<text x="34129.3" y="23233.9"
textLength="1728.35" font-size="1049.87" lengthAdjust="spacingAndGlyphs"
text-anchor="middle" opacity="0">U2</text>
</g>
<path d="M33698 23440
L34335 23440
L34410 23402
L34448 23365
L34485 23290
L34485 23140
L34448 23065
L34410 23027
L34335 22990
L33698 22990
" />
<path d="M33773 22652
L33735 22615
L33698 22540
L33698 22352
L33735 22277
L33773 22240
L33848 22202
L33923 22202
L34035 22240
L34485 22690
L34485 22202
" />
<text x="33079.7" y="42833.9"
textLength="1728.35" font-size="1049.87" lengthAdjust="spacingAndGlyphs"
text-anchor="middle" opacity="0">Q2</text>
<path d="M33004 42871
L32929 42833
L32854 42758
L32742 42646
L32667 42608
L32592 42608
" />
<path d="M32629 42796
L32554 42758
L32479 42683
L32442 42533
L32442 42271
L32479 42121
L32554 42046
L32629 42009
L32779 42009
L32854 42046
L32929 42121
L32967 42271
L32967 42533
L32929 42683
L32854 42758
L32779 42796
L32629 42796
" />
<path d="M33267 42083
L33304 42046
L33379 42009
L33567 42009
L33642 42046
L33679 42083
L33717 42158
L33717 42233
L33679 42346
L33229 42796
L33717 42796
" />
<text x="43279.7" y="18033.9"
textLength="1728.35" font-size="1049.87" lengthAdjust="spacingAndGlyphs"
text-anchor="middle" opacity="0">Q1</text>
<path d="M43204 18071
L43129 18033
L43054 17958
L42942 17846
L42867 17808
L42792 17808
" />
<path d="M42829 17996
L42754 17958
L42679 17883
L42642 17733
L42642 17471
L42679 17321
L42754 17246
L42829 17209
L42979 17209
L43054 17246
L43129 17321
L43167 17471
L43167 17733
L43129 17883
L43054 17958
L42979 17996
L42829 17996
" />
<path d="M43917 17996
L43467 17996
" />
<path d="M43692 17996
L43692 17209
L43617 17321
L43542 17396
L43467 17433
" />
<g transform="rotate(-90 34660.8 21740.2)">
<text x="34660.8" y="22133.9"
textLength="1690.85" font-size="1049.87" lengthAdjust="spacingAndGlyphs"
text-anchor="middle" opacity="0">C4</text>
</g>
<path d="M34942 21871
L34979 21908
L35017 22021
L35017 22096
L34979 22208
L34904 22283
L34829 22321
L34679 22358
L34567 22358
L34417 22321
L34342 22283
L34267 22208
L34229 22096
L34229 22021
L34267 21908
L34304 21871
" />
<path d="M34492 21196
L35017 21196
" />
<path d="M34192 21383
L34754 21571
L34754 21084
" />
<g transform="rotate(-90 67279.7 28140.2)">
<text x="67279.7" y="28533.9"
textLength="1690.85" font-size="1049.87" lengthAdjust="spacingAndGlyphs"
text-anchor="middle" opacity="0">D5</text>
</g>
<path d="M67635 28721
L66848 28721
L66848 28533
L66885 28421
L66960 28346
L67035 28308
L67185 28271
L67298 28271
L67448 28308
L67523 28346
L67598 28421
L67635 28533
L67635 28721
" />
<path d="M66848 27559
L66848 27933
L67223 27971
L67185 27933
L67148 27858
L67148 27671
L67185 27596
L67223 27559
L67298 27521
L67485 27521
L67560 27559
L67598 27596
L67635 27671
L67635 27858
L67598 27933
L67560 27971
" />
<text x="59520.6" y="34708.7"
textLength="2553.24" font-size="1049.87" lengthAdjust="spacingAndGlyphs"
text-anchor="middle" opacity="0">SW2</text>
<path d="M58470 34633
L58583 34671
L58770 34671
L58845 34633
L58883 34596
L58920 34521
L58920 34446
L58883 34371
L58845 34333
L58770 34296
L58620 34258
L58545 34221
L58508 34183
L58470 34108
L58470 34033
L58508 33958
L58545 33921
L58620 33883
L58808 33883
L58920 33921
" />
<path d="M59183 33883
L59370 34671
L59520 34108
L59670 34671
L59858 33883
" />
<path d="M60120 33958
L60158 33921
L60233 33883
L60420 33883
L60495 33921
L60533 33958
L60570 34033
L60570 34108
L60533 34221
L60083 34671
L60570 34671
" />
<text x="38279.7" y="17533.9"
textLength="1690.85" font-size="1049.87" lengthAdjust="spacingAndGlyphs"
text-anchor="middle" opacity="0">C3</text>
<path d="M38148 17421
L38110 17458
L37998 17496
L37923 17496
L37811 17458
L37736 17383
L37698 17308
L37661 17158
L37661 17046
L37698 16896
L37736 16821
L37811 16746
L37923 16709
L37998 16709
L38110 16746
L38148 16783
" />
<path d="M38410 16709
L38898 16709
L38635 17008
L38748 17008
L38823 17046
L38860 17083
L38898 17158
L38898 17346
L38860 17421
L38823 17458
L38748 17496
L38523 17496
L38448 17458
L38410 17421
" />
<text x="68679.7" y="47033.9"
textLength="2440.76" font-size="1049.87" lengthAdjust="spacingAndGlyphs"
text-anchor="middle" opacity="0">C15</text>
<path d="M68173 46921
L68136 46958
L68023 46996
L67948 46996
L67836 46958
L67761 46883
L67723 46808
L67686 46658
L67686 46546
L67723 46396
L67761 46321
L67836 46246
L67948 46209
L68023 46209
L68136 46246
L68173 46283
" />
<path d="M68923 46996
L68473 46996
" />
<path d="M68698 46996
L68698 46209
L68623 46321
L68548 46396
L68473 46433
" />
<path d="M69635 46209
L69260 46209
L69223 46583
L69260 46546
L69335 46508
L69523 46508
L69598 46546
L69635 46583
L69673 46658
L69673 46846
L69635 46921
L69598 46958
L69523 46996
L69335 46996
L69260 46958
L69223 46921
" />
<text x="39079.7" y="46033.9"
textLength="1690.85" font-size="1049.87" lengthAdjust="spacingAndGlyphs"
text-anchor="middle" opacity="0">R7</text>
<path d="M38948 45996
L38685 45621
" />
<path d="M38498 45996
L38498 45209
L38798 45209
L38873 45246
L38910 45283
L38948 45358
L38948 45471
L38910 45546
L38873 45583
L38798 45621
L38498 45621
" />
<path d="M39210 45209
L39735 45209
L39398 45996
" />
<text x="40779.7" y="36033.9"
textLength="1690.85" font-size="1049.87" lengthAdjust="spacingAndGlyphs"
text-anchor="middle" opacity="0">C2</text>
<path d="M40648 35921
L40610 35958
L40498 35996
L40423 35996
L40311 35958
L40236 35883
L40198 35808
L40161 35658
L40161 35546
L40198 35396
L40236 35321
L40311 35246
L40423 35209
L40498 35209
L40610 35246
L40648 35283
" />
<path d="M40948 35283
L40985 35246
L41060 35209
L41248 35209
L41323 35246
L41360 35283
L41398 35358
L41398 35433
L41360 35546
L40910 35996
L41398 35996
" />
<g transform="rotate(-90 39337.2 28878.8)">
<text x="39337.2" y="29272.5"
textLength="1128.42" font-size="1049.87" lengthAdjust="spacingAndGlyphs"
text-anchor="middle" opacity="0">+</text>
</g>
<path d="M39393 29178
L39393 28578
" />
<path d="M39693 28878
L39093 28878
" />
<text x="39079.7" y="44433.9"
textLength="1690.85" font-size="1049.87" lengthAdjust="spacingAndGlyphs"
text-anchor="middle" opacity="0">R6</text>
<path d="M38948 44396
L38685 44021
" />
<path d="M38498 44396
L38498 43609
L38798 43609
L38873 43646
L38910 43683
L38948 43758
L38948 43871
L38910 43946
L38873 43983
L38798 44021
L38498 44021
" />
<path d="M39623 43609
L39473 43609
L39398 43646
L39360 43683
L39285 43796
L39248 43946
L39248 44246
L39285 44321
L39323 44358
L39398 44396
L39548 44396
L39623 44358
L39660 44321
L39698 44246
L39698 44058
L39660 43983
L39623 43946
L39548 43908
L39398 43908
L39323 43946
L39285 43983
L39248 44058
" />
<text x="44279.7" y="29533.9"
textLength="2290.78" font-size="1049.87" lengthAdjust="spacingAndGlyphs"
text-anchor="middle" opacity="0">BT1</text>
<path d="M43661 29083
L43773 29121
L43811 29158
L43848 29233
L43848 29346
L43811 29421
L43773 29458
L43698 29496
L43398 29496
L43398 28709
L43661 28709
L43736 28746
L43773 28783
L43811 28858
L43811 28933
L43773 29008
L43736 29046
L43661 29083
L43398 29083
" />
<path d="M44073 28709
L44523 28709
" />
<path d="M44298 29496
L44298 28709
" />
<path d="M45198 29496
L44748 29496
" />
<path d="M44973 29496
L44973 28709
L44898 28821
L44823 28896
L44748 28933
" />
<g transform="rotate(-90 34379.7 40740.2)">
<text x="34379.7" y="40976.4"
textLength="1525.87" font-size="629.921" lengthAdjust="spacingAndGlyphs"
text-anchor="middle" opacity="0">C17</text>
</g>
<path d="M34548 41043
L34570 41066
L34593 41133
L34593 41178
L34570 41246
L34525 41291
L34480 41313
L34390 41336
L34323 41336
L34233 41313
L34188 41291
L34143 41246
L34120 41178
L34120 41133
L34143 41066
L34165 41043
" />
<path d="M34593 40593
L34593 40863
" />
<path d="M34593 40728
L34120 40728
L34188 40773
L34233 40818
L34255 40863
" />
<path d="M34120 40436
L34120 40121
L34593 40323
" />
<g transform="rotate(-90 34279.7 36140.2)">
<text x="34279.7" y="36376.4"
textLength="1525.87" font-size="629.921" lengthAdjust="spacingAndGlyphs"
text-anchor="middle" opacity="0">C16</text>
</g>
<path d="M34448 36443
L34470 36466
L34493 36533
L34493 36578
L34470 36646
L34425 36691
L34380 36713
L34290 36736
L34223 36736
L34133 36713
L34088 36691
L34043 36646
L34020 36578
L34020 36533
L34043 36466
L34065 36443
" />
<path d="M34493 35993
L34493 36263
" />
<path d="M34493 36128
L34020 36128
L34088 36173
L34133 36218
L34155 36263
" />
<path d="M34020 35589
L34020 35679
L34043 35723
L34065 35746
L34133 35791
L34223 35813
L34403 35813
L34448 35791
L34470 35768
L34493 35723
L34493 35634
L34470 35589
L34448 35566
L34403 35544
L34290 35544
L34245 35566
L34223 35589
L34200 35634
L34200 35723
L34223 35768
L34245 35791
L34290 35813
" />
<text x="40779.7" y="36878"
textLength="2478.25" font-size="1049.87" lengthAdjust="spacingAndGlyphs"
text-anchor="middle" opacity="0">U15</text>
<path d="M39804 36053
L39804 36690
L39842 36765
L39879 36803
L39954 36840
L40104 36840
L40179 36803
L40217 36765
L40254 36690
L40254 36053
" />
<path d="M41042 36840
L40592 36840
" />
<path d="M40817 36840
L40817 36053
L40742 36165
L40667 36240
L40592 36278
" />
<path d="M41754 36053
L41379 36053
L41342 36428
L41379 36390
L41454 36353
L41642 36353
L41717 36390
L41754 36428
L41792 36503
L41792 36690
L41754 36765
L41717 36803
L41642 36840
L41454 36840
L41379 36803
L41342 36765
" />
<text x="77779.7" y="41768.5"
textLength="1690.85" font-size="1049.87" lengthAdjust="spacingAndGlyphs"
text-anchor="middle" opacity="0">P1</text>
<path d="M77198 41731
L77198 40943
L77498 40943
L77573 40981
L77610 41018
L77648 41093
L77648 41206
L77610 41281
L77573 41318
L77498 41356
L77198 41356
" />
<path d="M78398 41731
L77948 41731
" />
<path d="M78173 41731
L78173 40943
L78098 41056
L78023 41131
L77948 41168
" />
<text x="29779.7" y="53533.9"
textLength="2478.25" font-size="1049.87" lengthAdjust="spacingAndGlyphs"
text-anchor="middle" opacity="0">U12</text>
<path d="M28804 52709
L28804 53346
L28842 53421
L28879 53458
L28954 53496
L29104 53496
L29179 53458
L29217 53421
L29254 53346
L29254 52709
" />
<path d="M30042 53496
L29592 53496
" />
<path d="M29817 53496
L29817 52709
L29742 52821
L29667 52896
L29592 52933
" />
<path d="M30342 52783
L30379 52746
L30454 52709
L30642 52709
L30717 52746
L30754 52783
L30792 52858
L30792 52933
L30754 53046
L30304 53496
L30792 53496
" />
<g transform="rotate(-90 75279.7 52640.2)">
<text x="75279.7" y="53033.9"
textLength="2440.76" font-size="1049.87" lengthAdjust="spacingAndGlyphs"
text-anchor="middle" opacity="0">C13</text>
</g>
<path d="M75560 53146
L75598 53183
L75635 53296
L75635 53371
L75598 53483
L75523 53558
L75448 53596
L75298 53633
L75185 53633
L75035 53596
L74960 53558
L74885 53483
L74848 53371
L74848 53296
L74885 53183
L74923 53146
" />
<path d="M75635 52396
L75635 52846
" />
<path d="M75635 52621
L74848 52621
L74960 52696
L75035 52771
L75073 52846
" />
<path d="M74848 52134
L74848 51646
L75148 51909
L75148 51796
L75185 51721
L75223 51684
L75298 51646
L75485 51646
L75560 51684
L75598 51721
L75635 51796
L75635 52021
L75598 52096
L75560 52134
" />
<g transform="rotate(-90 55781.3 23041.8)">
<text x="55781.3" y="23435.5"
textLength="1503.37" font-size="1049.87" lengthAdjust="spacingAndGlyphs"
text-anchor="middle" opacity="0">J1</text>
</g>
<path d="M55350 23304
L55912 23304
L56024 23341
L56099 23416
L56137 23529
L56137 23604
" />
<path d="M56137 22516
L56137 22966
" />
<path d="M56137 22741
L55350 22741
L55462 22816
L55537 22891
L55575 22966
" />
<text x="39779.7" y="25533.9"
textLength="1690.85" font-size="1049.87" lengthAdjust="spacingAndGlyphs"
text-anchor="middle" opacity="0">D2</text>
<path d="M39198 25496
L39198 24709
L39385 24709
L39498 24746
L39573 24821
L39610 24896
L39648 25046
L39648 25158
L39610 25308
L39573 25383
L39498 25458
L39385 25496
L39198 25496
" />
<path d="M39948 24783
L39985 24746
L40060 24709
L40248 24709
L40323 24746
L40360 24783
L40398 24858
L40398 24933
L40360 25046
L39910 25496
L40398 25496
" />
<text x="53079.7" y="47333.9"
textLength="1690.85" font-size="1049.87" lengthAdjust="spacingAndGlyphs"
text-anchor="middle" opacity="0">R8</text>
<path d="M52948 47296
L52685 46921
" />
<path d="M52498 47296
L52498 46509
L52798 46509
L52873 46546
L52910 46583
L52948 46658
L52948 46771
L52910 46846
L52873 46883
L52798 46921
L52498 46921
" />
<path d="M53398 46846
L53323 46808
L53285 46771
L53248 46696
L53248 46658
L53285 46583
L53323 46546
L53398 46509
L53548 46509
L53623 46546
L53660 46583
L53698 46658
L53698 46696
L53660 46771
L53623 46808
L53548 46846
L53398 46846
L53323 46883
L53285 46921
L53248 46996
L53248 47146
L53285 47221
L53323 47258
L53398 47296
L53548 47296
L53623 47258
L53660 47221
L53698 47146
L53698 46996
L53660 46921
L53623 46883
L53548 46846
" />
<g transform="rotate(-90 72379.7 27140.2)">
<text x="72379.7" y="27533.9"
textLength="1690.85" font-size="1049.87" lengthAdjust="spacingAndGlyphs"
text-anchor="middle" opacity="0">D4</text>
</g>
<path d="M72735 27721
L71948 27721
L71948 27533
L71985 27421
L72060 27346
L72135 27308
L72285 27271
L72398 27271
L72548 27308
L72623 27346
L72698 27421
L72735 27533
L72735 27721
" />
<path d="M72210 26596
L72735 26596
" />
<path d="M71911 26783
L72473 26971
L72473 26484
" />
<g transform="rotate(-90 70479.7 27140.2)">
<text x="70479.7" y="27533.9"
textLength="1690.85" font-size="1049.87" lengthAdjust="spacingAndGlyphs"
text-anchor="middle" opacity="0">D3</text>
</g>
<path d="M70835 27721
L70048 27721
L70048 27533
L70085 27421
L70160 27346
L70235 27308
L70385 27271
L70498 27271
L70648 27308
L70723 27346
L70798 27421
L70835 27533
L70835 27721
" />
<path d="M70048 27008
L70048 26521
L70348 26783
L70348 26671
L70385 26596
L70423 26559
L70498 26521
L70685 26521
L70760 26559
L70798 26596
L70835 26671
L70835 26896
L70798 26971
L70760 27008
" />
<text x="49679.7" y="30836.3"
textLength="1690.85" font-size="1049.87" lengthAdjust="spacingAndGlyphs"
text-anchor="middle" opacity="0">D1</text>
<path d="M49098 30798
L49098 30011
L49285 30011
L49398 30048
L49473 30123
L49510 30198
L49548 30348
L49548 30461
L49510 30611
L49473 30686
L49398 30761
L49285 30798
L49098 30798
" />
<path d="M50298 30798
L49848 30798
" />
<path d="M50073 30798
L50073 30011
L49998 30123
L49923 30198
L49848 30236
" />
<g transform="rotate(-90 88779.7 53540.2)">
<text x="88779.7" y="53933.9"
textLength="2478.25" font-size="1049.87" lengthAdjust="spacingAndGlyphs"
text-anchor="middle" opacity="0">U13</text>
</g>
<path d="M88348 54515
L88985 54515
L89060 54477
L89098 54440
L89135 54365
L89135 54215
L89098 54140
L89060 54102
L88985 54065
L88348 54065
" />
<path d="M89135 53277
L89135 53727
" />
<path d="M89135 53502
L88348 53502
L88460 53577
L88535 53652
L88573 53727
" />
<path d="M88348 53015
L88348 52527
L88648 52790
L88648 52677
L88685 52602
L88723 52565
L88798 52527
L88985 52527
L89060 52565
L89098 52602
L89135 52677
L89135 52902
L89098 52977
L89060 53015
" />
<g transform="rotate(-90 31836.4 31340.2)">
<text x="31836.4" y="31733.9"
textLength="1728.35" font-size="1049.87" lengthAdjust="spacingAndGlyphs"
text-anchor="middle" opacity="0">U1</text>
</g>
<path d="M31405 31940
L32042 31940
L32117 31902
L32155 31865
L32192 31790
L32192 31640
L32155 31565
L32117 31527
L32042 31490
L31405 31490
" />
<path d="M32192 30702
L32192 31152
" />
<path d="M32192 30927
L31405 30927
L31517 31002
L31592 31077
L31630 31152
" />
<text x="29479.7" y="36633.9"
textLength="1690.85" font-size="1049.87" lengthAdjust="spacingAndGlyphs"
text-anchor="middle" opacity="0">C1</text>
<path d="M29348 36521
L29310 36558
L29198 36596
L29123 36596
L29011 36558
L28936 36483
L28898 36408
L28861 36258
L28861 36146
L28898 35996
L28936 35921
L29011 35846
L29123 35809
L29198 35809
L29310 35846
L29348 35883
" />
<path d="M30098 36596
L29648 36596
" />
<path d="M29873 36596
L29873 35809
L29798 35921
L29723 35996
L29648 36033
" />
<text x="38279.7" y="19033.9"
textLength="1690.85" font-size="1049.87" lengthAdjust="spacingAndGlyphs"
text-anchor="middle" opacity="0">R1</text>
<path d="M38148 18996
L37885 18621
" />
<path d="M37698 18996
L37698 18209
L37998 18209
L38073 18246
L38110 18283
L38148 18358
L38148 18471
L38110 18546
L38073 18583
L37998 18621
L37698 18621
" />
<path d="M38898 18996
L38448 18996
" />
<path d="M38673 18996
L38673 18209
L38598 18321
L38523 18396
L38448 18433
" />
<text x="74820.6" y="25808.7"
textLength="2553.24" font-size="1049.87" lengthAdjust="spacingAndGlyphs"
text-anchor="middle" opacity="0">SW1</text>
<path d="M73770 25733
L73883 25771
L74070 25771
L74145 25733
L74183 25696
L74220 25621
L74220 25546
L74183 25471
L74145 25433
L74070 25396
L73920 25358
L73845 25321
L73808 25283
L73770 25208
L73770 25133
L73808 25058
L73845 25021
L73920 24983
L74108 24983
L74220 25021
" />
<path d="M74483 24983
L74670 25771
L74820 25208
L74970 25771
L75158 24983
" />
<path d="M75870 25771
L75420 25771
" />
<path d="M75645 25771
L75645 24983
L75570 25096
L75495 25171
L75420 25208
" />
<text x="56479.7" y="47333.9"
textLength="2440.76" font-size="1049.87" lengthAdjust="spacingAndGlyphs"
text-anchor="middle" opacity="0">C14</text>
<path d="M55973 47221
L55936 47258
L55823 47296
L55748 47296
L55636 47258
L55561 47183
L55523 47108
L55486 46958
L55486 46846
L55523 46696
L55561 46621
L55636 46546
L55748 46509
L55823 46509
L55936 46546
L55973 46583
" />
<path d="M56723 47296
L56273 47296
" />
<path d="M56498 47296
L56498 46509
L56423 46621
L56348 46696
L56273 46733
" />
<path d="M57398 46771
L57398 47296
" />
<path d="M57210 46471
L57023 47033
L57510 47033
" />
<g transform="rotate(-90 33979.7 38140.2)">
<text x="33979.7" y="38533.9"
textLength="1578.37" font-size="1049.87" lengthAdjust="spacingAndGlyphs"
text-anchor="middle" opacity="0">Y2</text>
</g>
<path d="M33960 38515
L34335 38515
" />
<path d="M33548 38777
L33960 38515
L33548 38252
" />
<path d="M33623 38027
L33585 37990
L33548 37915
L33548 37727
L33585 37652
L33623 37615
L33698 37577
L33773 37577
L33885 37615
L34335 38065
L34335 37577
" />
<text x="71779.7" y="48533.9"
textLength="2478.25" font-size="1049.87" lengthAdjust="spacingAndGlyphs"
text-anchor="middle" opacity="0">U11</text>
<path d="M70804 47709
L70804 48346
L70842 48421
L70879 48458
L70954 48496
L71104 48496
L71179 48458
L71217 48421
L71254 48346
L71254 47709
" />
<path d="M72042 48496
L71592 48496
" />
<path d="M71817 48496
L71817 47709
L71742 47821
L71667 47896
L71592 47933
" />
<path d="M72792 48496
L72342 48496
" />
<path d="M72567 48496
L72567 47709
L72492 47821
L72417 47896
L72342 47933
" />
<g transform="rotate(-90 44597.8 38340.2)">
<text x="44597.8" y="38733.9"
textLength="2478.25" font-size="1049.87" lengthAdjust="spacingAndGlyphs"
text-anchor="middle" opacity="0">U14</text>
</g>
<path d="M44166 39315
L44804 39315
L44879 39277
L44916 39240
L44954 39165
L44954 39015
L44916 38940
L44879 38902
L44804 38865
L44166 38865
" />
<path d="M44954 38077
L44954 38527
" />
<path d="M44954 38302
L44166 38302
L44279 38377
L44354 38452
L44391 38527
" />
<path d="M44429 37402
L44954 37402
" />
<path d="M44129 37590
L44691 37777
L44691 37290
" />
<g transform="rotate(-90 67279.7 33640.2)">
<text x="67279.7" y="34033.9"
textLength="1690.85" font-size="1049.87" lengthAdjust="spacingAndGlyphs"
text-anchor="middle" opacity="0">R4</text>
</g>
<path d="M67635 33771
L67260 34033
" />
<path d="M67635 34221
L66848 34221
L66848 33921
L66885 33846
L66923 33808
L66998 33771
L67110 33771
L67185 33808
L67223 33846
L67260 33921
L67260 34221
" />
<path d="M67110 33096
L67635 33096
" />
<path d="M66811 33283
L67373 33471
L67373 32984
" />
<g transform="rotate(-90 64679.7 30640.2)">
<text x="64679.7" y="31033.9"
textLength="1690.85" font-size="1049.87" lengthAdjust="spacingAndGlyphs"
text-anchor="middle" opacity="0">R5</text>
</g>
<path d="M65035 30771
L64660 31033
" />
<path d="M65035 31221
L64248 31221
L64248 30921
L64285 30846
L64323 30808
L64398 30771
L64510 30771
L64585 30808
L64623 30846
L64660 30921
L64660 31221
" />
<path d="M64248 30059
L64248 30433
L64623 30471
L64585 30433
L64548 30358
L64548 30171
L64585 30096
L64623 30059
L64698 30021
L64885 30021
L64960 30059
L64998 30096
L65035 30171
L65035 30358
L64998 30433
L64960 30471
" />
<g transform="rotate(-90 71279.7 33640.2)">
<text x="71279.7" y="34033.9"
textLength="1690.85" font-size="1049.87" lengthAdjust="spacingAndGlyphs"
text-anchor="middle" opacity="0">R3</text>
</g>
<path d="M71635 33771
L71260 34033
" />
<path d="M71635 34221
L70848 34221
L70848 33921
L70885 33846
L70923 33808
L70998 33771
L71110 33771
L71185 33808
L71223 33846
L71260 33921
L71260 34221
" />
<path d="M70848 33508
L70848 33021
L71148 33283
L71148 33171
L71185 33096
L71223 33059
L71298 33021
L71485 33021
L71560 33059
L71598 33096
L71635 33171
L71635 33396
L71598 33471
L71560 33508
" />
<g transform="rotate(-90 61226.1 63640.2)">
<text x="61226.1" y="64033.9"
textLength="2290.78" font-size="1049.87" lengthAdjust="spacingAndGlyphs"
text-anchor="middle" opacity="0">L13</text>
</g>
<path d="M61582 64146
L61582 64521
L60794 64521
" />
<path d="M61582 63471
L61582 63921
" />
<path d="M61582 63696
L60794 63696
L60907 63771
L60982 63846
L61019 63921
" />
<path d="M60794 63209
L60794 62721
L61094 62984
L61094 62871
L61132 62796
L61169 62759
L61244 62721
L61432 62721
L61507 62759
L61544 62796
L61582 62871
L61582 63096
L61544 63171
L61507 63209
" />
<text x="33895.4" y="69896.1"
textLength="1728.35" font-size="1049.87" lengthAdjust="spacingAndGlyphs"
text-anchor="middle" opacity="0">U3</text>
<path d="M33295 69071
L33295 69708
L33333 69783
L33370 69821
L33445 69858
L33595 69858
L33670 69821
L33707 69783
L33745 69708
L33745 69071
" />
<path d="M34045 69071
L34532 69071
L34270 69371
L34382 69371
L34457 69408
L34495 69446
L34532 69521
L34532 69708
L34495 69783
L34457 69821
L34382 69858
L34157 69858
L34082 69821
L34045 69783
" />
<g transform="rotate(-90 76533.2 63640.2)">
<text x="76533.2" y="64033.9"
textLength="1540.87" font-size="1049.87" lengthAdjust="spacingAndGlyphs"
text-anchor="middle" opacity="0">L7</text>
</g>
<path d="M76889 63771
L76889 64146
L76102 64146
" />
<path d="M76102 63583
L76102 63059
L76889 63396
" />
<text x="75863.9" y="69896.1"
textLength="1728.35" font-size="1049.87" lengthAdjust="spacingAndGlyphs"
text-anchor="middle" opacity="0">U9</text>
<path d="M75264 69071
L75264 69708
L75301 69783
L75339 69821
L75414 69858
L75563 69858
L75638 69821
L75676 69783
L75713 69708
L75713 69071
" />
<path d="M76126 69858
L76276 69858
L76351 69821
L76388 69783
L76463 69671
L76501 69521
L76501 69221
L76463 69146
L76426 69108
L76351 69071
L76201 69071
L76126 69108
L76088 69146
L76051 69221
L76051 69408
L76088 69483
L76126 69521
L76201 69558
L76351 69558
L76426 69521
L76463 69483
L76501 69408
" />
<text x="68879.7" y="60352.8"
textLength="2440.76" font-size="1049.87" lengthAdjust="spacingAndGlyphs"
text-anchor="middle" opacity="0">C10</text>
<path d="M68373 60240
L68336 60277
L68223 60315
L68148 60315
L68036 60277
L67961 60202
L67923 60127
L67886 59977
L67886 59865
L67923 59715
L67961 59640
L68036 59565
L68148 59527
L68223 59527
L68336 59565
L68373 59602
" />
<path d="M69123 60315
L68673 60315
" />
<path d="M68898 60315
L68898 59527
L68823 59640
L68748 59715
L68673 59752
" />
<path d="M69610 59527
L69685 59527
L69760 59565
L69798 59602
L69835 59677
L69873 59827
L69873 60015
L69835 60165
L69798 60240
L69760 60277
L69685 60315
L69610 60315
L69535 60277
L69498 60240
L69460 60165
L69423 60015
L69423 59827
L69460 59677
L69498 59602
L69535 59565
L69610 59527
" />
<text x="61879.7" y="60352.8"
textLength="1690.85" font-size="1049.87" lengthAdjust="spacingAndGlyphs"
text-anchor="middle" opacity="0">C9</text>
<path d="M61748 60240
L61710 60277
L61598 60315
L61523 60315
L61411 60277
L61336 60202
L61298 60127
L61261 59977
L61261 59865
L61298 59715
L61336 59640
L61411 59565
L61523 59527
L61598 59527
L61710 59565
L61748 59602
" />
<path d="M62123 60315
L62273 60315
L62348 60277
L62385 60240
L62460 60127
L62498 59977
L62498 59677
L62460 59602
L62423 59565
L62348 59527
L62198 59527
L62123 59565
L62085 59602
L62048 59677
L62048 59865
L62085 59940
L62123 59977
L62198 60015
L62348 60015
L62423 59977
L62460 59940
L62498 59865
" />
<text x="40879.7" y="60352.8"
textLength="1690.85" font-size="1049.87" lengthAdjust="spacingAndGlyphs"
text-anchor="middle" opacity="0">C6</text>
<path d="M40748 60240
L40710 60277
L40598 60315
L40523 60315
L40411 60277
L40336 60202
L40298 60127
L40261 59977
L40261 59865
L40298 59715
L40336 59640
L40411 59565
L40523 59527
L40598 59527
L40710 59565
L40748 59602
" />
<path d="M41423 59527
L41273 59527
L41198 59565
L41160 59602
L41085 59715
L41048 59865
L41048 60165
L41085 60240
L41123 60277
L41198 60315
L41348 60315
L41423 60277
L41460 60240
L41498 60165
L41498 59977
L41460 59902
L41423 59865
L41348 59827
L41198 59827
L41123 59865
L41085 59902
L41048 59977
" />
<text x="33879.7" y="60352.8"
textLength="1690.85" font-size="1049.87" lengthAdjust="spacingAndGlyphs"
text-anchor="middle" opacity="0">C5</text>
<path d="M33748 60240
L33710 60277
L33598 60315
L33523 60315
L33411 60277
L33336 60202
L33298 60127
L33261 59977
L33261 59865
L33298 59715
L33336 59640
L33411 59565
L33523 59527
L33598 59527
L33710 59565
L33748 59602
" />
<path d="M34460 59527
L34085 59527
L34048 59902
L34085 59865
L34160 59827
L34348 59827
L34423 59865
L34460 59902
L34498 59977
L34498 60165
L34460 60240
L34423 60277
L34348 60315
L34160 60315
L34085 60277
L34048 60240
" />
<g transform="rotate(-90 33226.1 63640.2)">
<text x="33226.1" y="64033.9"
textLength="1540.87" font-size="1049.87" lengthAdjust="spacingAndGlyphs"
text-anchor="middle" opacity="0">L9</text>
</g>
<path d="M33582 63771
L33582 64146
L32794 64146
" />
<path d="M33582 63471
L33582 63321
L33544 63246
L33507 63209
L33394 63134
L33244 63096
L32944 63096
L32869 63134
L32832 63171
L32794 63246
L32794 63396
L32832 63471
L32869 63508
L32944 63546
L33132 63546
L33207 63508
L33244 63471
L33282 63396
L33282 63246
L33244 63171
L33207 63134
L33132 63096
" />
<text x="47879.7" y="60352.8"
textLength="1690.85" font-size="1049.87" lengthAdjust="spacingAndGlyphs"
text-anchor="middle" opacity="0">C7</text>
<path d="M47748 60240
L47710 60277
L47598 60315
L47523 60315
L47411 60277
L47336 60202
L47298 60127
L47261 59977
L47261 59865
L47298 59715
L47336 59640
L47411 59565
L47523 59527
L47598 59527
L47710 59565
L47748 59602
" />
<path d="M48010 59527
L48535 59527
L48198 60315
" />
<text x="54879.7" y="60352.8"
textLength="1690.85" font-size="1049.87" lengthAdjust="spacingAndGlyphs"
text-anchor="middle" opacity="0">C8</text>
<path d="M54748 60240
L54710 60277
L54598 60315
L54523 60315
L54411 60277
L54336 60202
L54298 60127
L54261 59977
L54261 59865
L54298 59715
L54336 59640
L54411 59565
L54523 59527
L54598 59527
L54710 59565
L54748 59602
" />
<path d="M55198 59865
L55123 59827
L55085 59790
L55048 59715
L55048 59677
L55085 59602
L55123 59565
L55198 59527
L55348 59527
L55423 59565
L55460 59602
L55498 59677
L55498 59715
L55460 59790
L55423 59827
L55348 59865
L55198 59865
L55123 59902
L55085 59940
L55048 60015
L55048 60165
L55085 60240
L55123 60277
L55198 60315
L55348 60315
L55423 60277
L55460 60240
L55498 60165
L55498 60015
L55460 59940
L55423 59902
L55348 59865
" />
<text x="75879.7" y="60352.8"
textLength="2440.76" font-size="1049.87" lengthAdjust="spacingAndGlyphs"
text-anchor="middle" opacity="0">C11</text>
<path d="M75373 60240
L75336 60277
L75223 60315
L75148 60315
L75036 60277
L74961 60202
L74923 60127
L74886 59977
L74886 59865
L74923 59715
L74961 59640
L75036 59565
L75148 59527
L75223 59527
L75336 59565
L75373 59602
" />
<path d="M76123 60315
L75673 60315
" />
<path d="M75898 60315
L75898 59527
L75823 59640
L75748 59715
L75673 59752
" />
<path d="M76873 60315
L76423 60315
" />
<path d="M76648 60315
L76648 59527
L76573 59640
L76498 59715
L76423 59752
" />
<text x="82879.7" y="60352.8"
textLength="2440.76" font-size="1049.87" lengthAdjust="spacingAndGlyphs"
text-anchor="middle" opacity="0">C12</text>
<path d="M82373 60240
L82336 60277
L82223 60315
L82148 60315
L82036 60277
L81961 60202
L81923 60127
L81886 59977
L81886 59865
L81923 59715
L81961 59640
L82036 59565
L82148 59527
L82223 59527
L82336 59565
L82373 59602
" />
<path d="M83123 60315
L82673 60315
" />
<path d="M82898 60315
L82898 59527
L82823 59640
L82748 59715
L82673 59752
" />
<path d="M83423 59602
L83460 59565
L83535 59527
L83723 59527
L83798 59565
L83835 59602
L83873 59677
L83873 59752
L83835 59865
L83385 60315
L83873 60315
" />
<g transform="rotate(-90 34533.2 63640.2)">
<text x="34533.2" y="64033.9"
textLength="1540.87" font-size="1049.87" lengthAdjust="spacingAndGlyphs"
text-anchor="middle" opacity="0">L1</text>
</g>
<path d="M34889 63771
L34889 64146
L34102 64146
" />
<path d="M34889 63096
L34889 63546
" />
<path d="M34889 63321
L34102 63321
L34214 63396
L34289 63471
L34327 63546
" />
<g transform="rotate(-90 41533.2 63640.2)">
<text x="41533.2" y="64033.9"
textLength="1540.87" font-size="1049.87" lengthAdjust="spacingAndGlyphs"
text-anchor="middle" opacity="0">L2</text>
</g>
<path d="M41889 63771
L41889 64146
L41102 64146
" />
<path d="M41177 63546
L41139 63508
L41102 63433
L41102 63246
L41139 63171
L41177 63134
L41252 63096
L41327 63096
L41439 63134
L41889 63583
L41889 63096
" />
<g transform="rotate(-90 48533.2 63640.2)">
<text x="48533.2" y="64033.9"
textLength="1540.87" font-size="1049.87" lengthAdjust="spacingAndGlyphs"
text-anchor="middle" opacity="0">L3</text>
</g>
<path d="M48889 63771
L48889 64146
L48102 64146
" />
<path d="M48102 63583
L48102 63096
L48402 63358
L48402 63246
L48439 63171
L48476 63134
L48551 63096
L48739 63096
L48814 63134
L48851 63171
L48889 63246
L48889 63471
L48851 63546
L48814 63583
" />
<g transform="rotate(-90 55533.2 63640.2)">
<text x="55533.2" y="64033.9"
textLength="1540.87" font-size="1049.87" lengthAdjust="spacingAndGlyphs"
text-anchor="middle" opacity="0">L4</text>
</g>
<path d="M55889 63771
L55889 64146
L55102 64146
" />
<path d="M55364 63171
L55889 63171
" />
<path d="M55064 63358
L55626 63546
L55626 63059
" />
<g transform="rotate(-90 62533.2 63640.2)">
<text x="62533.2" y="64033.9"
textLength="1540.87" font-size="1049.87" lengthAdjust="spacingAndGlyphs"
text-anchor="middle" opacity="0">L5</text>
</g>
<path d="M62889 63771
L62889 64146
L62102 64146
" />
<path d="M62102 63134
L62102 63508
L62476 63546
L62439 63508
L62402 63433
L62402 63246
L62439 63171
L62476 63134
L62551 63096
L62739 63096
L62814 63134
L62851 63171
L62889 63246
L62889 63433
L62851 63508
L62814 63546
" />
<g transform="rotate(-90 69533.2 63640.2)">
<text x="69533.2" y="64033.9"
textLength="1540.87" font-size="1049.87" lengthAdjust="spacingAndGlyphs"
text-anchor="middle" opacity="0">L6</text>
</g>
<path d="M69889 63771
L69889 64146
L69102 64146
" />
<path d="M69102 63171
L69102 63321
L69139 63396
L69177 63433
L69289 63508
L69439 63546
L69739 63546
L69814 63508
L69851 63471
L69889 63396
L69889 63246
L69851 63171
L69814 63134
L69739 63096
L69551 63096
L69476 63134
L69439 63171
L69402 63246
L69402 63396
L69439 63471
L69476 63508
L69551 63546
" />
<g transform="rotate(-90 83533.2 63640.2)">
<text x="83533.2" y="64033.9"
textLength="1540.87" font-size="1049.87" lengthAdjust="spacingAndGlyphs"
text-anchor="middle" opacity="0">L8</text>
</g>
<path d="M83889 63771
L83889 64146
L83102 64146
" />
<path d="M83439 63396
L83402 63471
L83364 63508
L83289 63546
L83252 63546
L83177 63508
L83139 63471
L83102 63396
L83102 63246
L83139 63171
L83177 63134
L83252 63096
L83289 63096
L83364 63134
L83402 63171
L83439 63246
L83439 63396
L83476 63471
L83514 63508
L83589 63546
L83739 63546
L83814 63508
L83851 63471
L83889 63396
L83889 63246
L83851 63171
L83814 63134
L83739 63096
L83589 63096
L83514 63134
L83476 63171
L83439 63246
" />
<g transform="rotate(-90 40226.1 63640.2)">
<text x="40226.1" y="64033.9"
textLength="2290.78" font-size="1049.87" lengthAdjust="spacingAndGlyphs"
text-anchor="middle" opacity="0">L10</text>
</g>
<path d="M40582 64146
L40582 64521
L39794 64521
" />
<path d="M40582 63471
L40582 63921
" />
<path d="M40582 63696
L39794 63696
L39907 63771
L39982 63846
L40019 63921
" />
<path d="M39794 62984
L39794 62909
L39832 62834
L39869 62796
L39944 62759
L40094 62721
L40282 62721
L40432 62759
L40507 62796
L40544 62834
L40582 62909
L40582 62984
L40544 63059
L40507 63096
L40432 63134
L40282 63171
L40094 63171
L39944 63134
L39869 63096
L39832 63059
L39794 62984
" />
<g transform="rotate(-90 47226.1 63640.2)">
<text x="47226.1" y="64033.9"
textLength="2290.78" font-size="1049.87" lengthAdjust="spacingAndGlyphs"
text-anchor="middle" opacity="0">L11</text>
</g>
<path d="M47582 64146
L47582 64521
L46794 64521
" />
<path d="M47582 63471
L47582 63921
" />
<path d="M47582 63696
L46794 63696
L46907 63771
L46982 63846
L47019 63921
" />
<path d="M47582 62721
L47582 63171
" />
<path d="M47582 62946
L46794 62946
L46907 63021
L46982 63096
L47019 63171
" />
<g transform="rotate(-90 54226.1 63640.2)">
<text x="54226.1" y="64033.9"
textLength="2290.78" font-size="1049.87" lengthAdjust="spacingAndGlyphs"
text-anchor="middle" opacity="0">L12</text>
</g>
<path d="M54582 64146
L54582 64521
L53794 64521
" />
<path d="M54582 63471
L54582 63921
" />
<path d="M54582 63696
L53794 63696
L53907 63771
L53982 63846
L54019 63921
" />
<path d="M53869 63171
L53832 63134
L53794 63059
L53794 62871
L53832 62796
L53869 62759
L53944 62721
L54019 62721
L54132 62759
L54582 63209
L54582 62721
" />
<g transform="rotate(-90 68226.1 63640.2)">
<text x="68226.1" y="64033.9"
textLength="2290.78" font-size="1049.87" lengthAdjust="spacingAndGlyphs"
text-anchor="middle" opacity="0">L14</text>
</g>
<path d="M68582 64146
L68582 64521
L67794 64521
" />
<path d="M68582 63471
L68582 63921
" />
<path d="M68582 63696
L67794 63696
L67907 63771
L67982 63846
L68019 63921
" />
<path d="M68057 62796
L68582 62796
" />
<path d="M67757 62984
L68319 63171
L68319 62684
" />
<g transform="rotate(-90 75226.1 63640.2)">
<text x="75226.1" y="64033.9"
textLength="2290.78" font-size="1049.87" lengthAdjust="spacingAndGlyphs"
text-anchor="middle" opacity="0">L15</text>
</g>
<path d="M75582 64146
L75582 64521
L74794 64521
" />
<path d="M75582 63471
L75582 63921
" />
<path d="M75582 63696
L74794 63696
L74907 63771
L74982 63846
L75019 63921
" />
<path d="M74794 62759
L74794 63134
L75169 63171
L75132 63134
L75094 63059
L75094 62871
L75132 62796
L75169 62759
L75244 62721
L75432 62721
L75507 62759
L75544 62796
L75582 62871
L75582 63059
L75544 63134
L75507 63171
" />
<g transform="rotate(-90 82226.1 63640.2)">
<text x="82226.1" y="64033.9"
textLength="2290.78" font-size="1049.87" lengthAdjust="spacingAndGlyphs"
text-anchor="middle" opacity="0">L16</text>
</g>
<path d="M82582 64146
L82582 64521
L81794 64521
" />
<path d="M82582 63471
L82582 63921
" />
<path d="M82582 63696
L81794 63696
L81907 63771
L81982 63846
L82019 63921
" />
<path d="M81794 62796
L81794 62946
L81832 63021
L81869 63059
L81982 63134
L82132 63171
L82432 63171
L82507 63134
L82544 63096
L82582 63021
L82582 62871
L82544 62796
L82507 62759
L82432 62721
L82244 62721
L82169 62759
L82132 62796
L82094 62871
L82094 63021
L82132 63096
L82169 63134
L82244 63171
" />
<text x="29779.7" y="38733.9"
textLength="1690.85" font-size="1049.87" lengthAdjust="spacingAndGlyphs"
text-anchor="middle" opacity="0">R2</text>
<path d="M29648 38696
L29385 38321
" />
<path d="M29198 38696
L29198 37909
L29498 37909
L29573 37946
L29610 37983
L29648 38058
L29648 38171
L29610 38246
L29573 38283
L29498 38321
L29198 38321
" />
<path d="M29948 37983
L29985 37946
L30060 37909
L30248 37909
L30323 37946
L30360 37983
L30398 38058
L30398 38133
L30360 38246
L29910 38696
L30398 38696
" />
<text x="62701" y="47809.5"
textLength="1578.37" font-size="1049.87" lengthAdjust="spacingAndGlyphs"
text-anchor="middle" opacity="0">Y1</text>
<path d="M62325 47397
L62325 47771
" />
<path d="M62063 46984
L62325 47397
L62588 46984
" />
<path d="M63263 47771
L62813 47771
" />
<path d="M63038 47771
L63038 46984
L62963 47097
L62888 47172
L62813 47209
" />
<text x="40895.4" y="69896.1"
textLength="1728.35" font-size="1049.87" lengthAdjust="spacingAndGlyphs"
text-anchor="middle" opacity="0">U4</text>
<path d="M40295 69071
L40295 69708
L40333 69783
L40370 69821
L40445 69858
L40595 69858
L40670 69821
L40707 69783
L40745 69708
L40745 69071
" />
<path d="M41457 69333
L41457 69858
" />
<path d="M41270 69033
L41082 69596
L41570 69596
" />
<text x="47895.4" y="69896.1"
textLength="1728.35" font-size="1049.87" lengthAdjust="spacingAndGlyphs"
text-anchor="middle" opacity="0">U5</text>
<path d="M47295 69071
L47295 69708
L47333 69783
L47370 69821
L47445 69858
L47595 69858
L47670 69821
L47707 69783
L47745 69708
L47745 69071
" />
<path d="M48495 69071
L48120 69071
L48082 69446
L48120 69408
L48195 69371
L48382 69371
L48457 69408
L48495 69446
L48532 69521
L48532 69708
L48495 69783
L48457 69821
L48382 69858
L48195 69858
L48120 69821
L48082 69783
" />
<text x="54895.4" y="69896.1"
textLength="1728.35" font-size="1049.87" lengthAdjust="spacingAndGlyphs"
text-anchor="middle" opacity="0">U6</text>
<path d="M54295 69071
L54295 69708
L54333 69783
L54370 69821
L54445 69858
L54595 69858
L54670 69821
L54707 69783
L54745 69708
L54745 69071
" />
<path d="M55457 69071
L55307 69071
L55232 69108
L55195 69146
L55120 69258
L55082 69408
L55082 69708
L55120 69783
L55157 69821
L55232 69858
L55382 69858
L55457 69821
L55495 69783
L55532 69708
L55532 69521
L55495 69446
L55457 69408
L55382 69371
L55232 69371
L55157 69408
L55120 69446
L55082 69521
" />
<text x="61895.4" y="69896.1"
textLength="1728.35" font-size="1049.87" lengthAdjust="spacingAndGlyphs"
text-anchor="middle" opacity="0">U7</text>
<path d="M61295 69071
L61295 69708
L61333 69783
L61370 69821
L61445 69858
L61595 69858
L61670 69821
L61707 69783
L61745 69708
L61745 69071
" />
<path d="M62045 69071
L62570 69071
L62232 69858
" />
<text x="68863.9" y="69896.1"
textLength="1728.35" font-size="1049.87" lengthAdjust="spacingAndGlyphs"
text-anchor="middle" opacity="0">U8</text>
<path d="M68264 69071
L68264 69708
L68301 69783
L68339 69821
L68414 69858
L68563 69858
L68638 69821
L68676 69783
L68713 69708
L68713 69071
" />
<path d="M69201 69408
L69126 69371
L69088 69333
L69051 69258
L69051 69221
L69088 69146
L69126 69108
L69201 69071
L69351 69071
L69426 69108
L69463 69146
L69501 69221
L69501 69258
L69463 69333
L69426 69371
L69351 69408
L69201 69408
L69126 69446
L69088 69483
L69051 69558
L69051 69708
L69088 69783
L69126 69821
L69201 69858
L69351 69858
L69426 69821
L69463 69783
L69501 69708
L69501 69558
L69463 69483
L69426 69446
L69351 69408
" />
<text x="82863.9" y="69896.1"
textLength="2478.25" font-size="1049.87" lengthAdjust="spacingAndGlyphs"
text-anchor="middle" opacity="0">U10</text>
<path d="M81889 69071
L81889 69708
L81926 69783
L81964 69821
L82039 69858
L82189 69858
L82264 69821
L82301 69783
L82339 69708
L82339 69071
" />
<path d="M83126 69858
L82676 69858
" />
<path d="M82901 69858
L82901 69071
L82826 69183
L82751 69258
L82676 69296
" />
<path d="M83613 69071
L83688 69071
L83763 69108
L83801 69146
L83838 69221
L83876 69371
L83876 69558
L83838 69708
L83801 69783
L83763 69821
L83688 69858
L83613 69858
L83538 69821
L83501 69783
L83463 69708
L83426 69558
L83426 69371
L83463 69221
L83501 69146
L83538 69108
L83613 69071
" />
<g >
</g>
</g> 
</svg>
