<?xml version="1.0" standalone="no"?>
 <!DOCTYPE svg PUBLIC "-//W3C//DTD SVG 1.1//EN" 
 "http://www.w3.org/Graphics/SVG/1.1/DTD/svg11.dtd"> 
<svg xmlns="http://www.w3.org/2000/svg" version="1.1" 
    width="29.7002cm" height="21.0007cm" viewBox="0 0 116930 82680 ">
<title>SVG Picture created as ThermocoupleLogger-Eco1_User.svg date 2020/03/23 11:43:55 </title>
  <desc>Picture generated by PCBNEW </desc>
<g style="fill:#000000; fill-opacity:1;stroke:#000000; stroke-opacity:1;
stroke-linecap:round; stroke-linejoin:round; "
 transform="translate(0 0) scale(1 1)">
</g>
<g style="fill:#000000; fill-opacity:0.0; 
stroke:#000000; stroke-width:-0.000787402; stroke-opacity:1; 
stroke-linecap:round; stroke-linejoin:round;">
</g>
<g style="fill:#000000; fill-opacity:0.0; 
stroke:#000000; stroke-width:78.7402; stroke-opacity:1; 
stroke-linecap:round; stroke-linejoin:round;">
<path d="M95279 14140
L95279 15140
" />
<path d="M25279 14140
L95279 14140
" />
<path d="M25279 15140
L25279 14140
" />
<path d="M95279 71140
L95279 15140
" />
<path d="M95279 71140
L95279 71140
" />
<path d="M95279 71140
L95279 71140
" />
<path d="M95279 71140
L95279 71140
" />
<path d="M25279 71140
L95279 71140
" />
<path d="M25279 71140
L25279 71140
" />
<path d="M25279 71140
L25279 71140
" />
<path d="M25279 15140
L25279 71140
" />
<path d="M25279 15140
L25279 15140
" />
<g >
</g>
<g >
</g>
<g >
</g>
<g >
</g>
<g >
</g>
<g >
</g>
<g >
</g>
<g >
</g>
<g >
</g>
<g >
</g>
<g >
</g>
<g >
</g>
<g >
</g>
<g >
</g>
<g >
</g>
<g >
</g>
<g >
</g>
<g >
</g>
<g >
</g>
<g >
</g>
<g >
</g>
<g >
</g>
<g >
</g>
<g >
</g>
<g >
</g>
<g >
</g>
<g >
</g>
<g >
</g>
<g >
</g>
<g >
</g>
<g >
</g>
<g >
</g>
<g >
</g>
<g >
</g>
<g >
</g>
<g >
</g>
<g >
</g>
<g >
</g>
<g >
</g>
<g >
</g>
<g >
</g>
<g >
</g>
<g >
</g>
<g >
</g>
<g >
</g>
<g >
</g>
<g >
</g>
<g >
</g>
<g >
</g>
<g >
</g>
<g >
</g>
<g >
</g>
<g >
</g>
<g >
</g>
<g >
</g>
<g >
</g>
<g >
</g>
<g >
</g>
<g >
</g>
<g >
</g>
<g >
</g>
<g >
</g>
<g >
</g>
<g >
</g>
<g >
</g>
<g >
</g>
<g >
</g>
<g >
</g>
<g >
</g>
<g >
</g>
<g >
</g>
<g >
</g>
<g >
</g>
<g >
</g>
<g >
</g>
<g >
</g>
<g >
</g>
<g >
</g>
<g >
</g>
</g>
<g style="fill:#000000; fill-opacity:0.0; 
stroke:#000000; stroke-width:78.7402; stroke-opacity:1; 
stroke-linecap:round; stroke-linejoin:round;">
</g>
<g style="fill:#000000; fill-opacity:0.0; 
stroke:#000000; stroke-width:23.622; stroke-opacity:1; 
stroke-linecap:round; stroke-linejoin:round;">
<text x="60592.3" y="25352.8"
textLength="982.002" font-size="314.961" lengthAdjust="spacingAndGlyphs"
text-anchor="middle" opacity="0">XS1</text>
<path d="M60288 25105
L60446 25341
" />
<path d="M60446 25105
L60288 25341
" />
<path d="M60524 25330
L60558 25341
L60614 25341
L60637 25330
L60648 25319
L60659 25296
L60659 25274
L60648 25251
L60637 25240
L60614 25229
L60569 25217
L60547 25206
L60536 25195
L60524 25172
L60524 25150
L60536 25127
L60547 25116
L60569 25105
L60626 25105
L60659 25116
" />
<path d="M60884 25341
L60749 25341
" />
<path d="M60817 25341
L60817 25105
L60794 25139
L60772 25161
L60749 25172
" />
<g >
</g>
</g> 
</svg>
