<?xml version="1.0" standalone="no"?>
 <!DOCTYPE svg PUBLIC "-//W3C//DTD SVG 1.1//EN" 
 "http://www.w3.org/Graphics/SVG/1.1/DTD/svg11.dtd"> 
<svg xmlns="http://www.w3.org/2000/svg" version="1.1" 
    width="29.7002cm" height="21.0007cm" viewBox="0 0 116930 82680 ">
<title>SVG Picture created as ThermocoupleLogger-F_CrtYd.svg date 2020/03/23 11:43:55 </title>
  <desc>Picture generated by PCBNEW </desc>
<g style="fill:#000000; fill-opacity:1;stroke:#000000; stroke-opacity:1;
stroke-linecap:round; stroke-linejoin:round; "
 transform="translate(0 0) scale(1 1)">
</g>
<g style="fill:#000000; fill-opacity:0.0; 
stroke:#000000; stroke-width:-0.000787402; stroke-opacity:1; 
stroke-linecap:round; stroke-linejoin:round;">
</g>
<g style="fill:#000000; fill-opacity:0.0; 
stroke:#000000; stroke-width:78.7402; stroke-opacity:1; 
stroke-linecap:round; stroke-linejoin:round;">
<path d="M95279 14140
L95279 15140
" />
<path d="M25279 14140
L95279 14140
" />
<path d="M25279 15140
L25279 14140
" />
<path d="M95279 71140
L95279 15140
" />
<path d="M95279 71140
L95279 71140
" />
<path d="M95279 71140
L95279 71140
" />
<path d="M95279 71140
L95279 71140
" />
<path d="M25279 71140
L95279 71140
" />
<path d="M25279 71140
L25279 71140
" />
<path d="M25279 71140
L25279 71140
" />
<path d="M25279 15140
L25279 71140
" />
<path d="M25279 15140
L25279 15140
" />
</g>
<g style="fill:#000000; fill-opacity:0.0; 
stroke:#000000; stroke-width:39.3701; stroke-opacity:1; 
stroke-linecap:round; stroke-linejoin:round;">
<circle cx="28681.3" cy="33596.9" r="4527.56" /> 
<circle cx="28279.7" cy="17140.2" r="2716.54" /> 
<path d="M34814 18706
L34814 26974
" />
<path d="M38680 18706
L34814 18706
" />
<path d="M38680 26974
L38680 18706
" />
<path d="M34814 26974
L38680 26974
" />
<path d="M27933 46411
L34626 46411
" />
<path d="M27933 43459
L27933 46411
" />
<path d="M34626 43459
L27933 43459
" />
<path d="M34626 46411
L34626 43459
" />
<path d="M41371 18201
L44788 18201
" />
<path d="M41371 18201
L41371 20878
" />
<path d="M44788 20878
L44788 18201
" />
<path d="M44788 20878
L41371 20878
" />
<path d="M56143 17085
L56143 14329
" />
<path d="M55356 17085
L56143 17085
" />
<path d="M55356 19250
L55356 17085
" />
<path d="M56143 19250
L55356 19250
" />
<path d="M56143 24959
L56143 19250
" />
<path d="M55946 24959
L56143 24959
" />
<path d="M55946 26533
L55946 24959
" />
<path d="M57718 26533
L55946 26533
" />
<path d="M57718 25943
L57718 26533
" />
<path d="M60080 25943
L57718 25943
" />
<path d="M60080 26927
L60080 25943
" />
<path d="M67954 26927
L60080 26927
" />
<path d="M67954 26533
L67954 26927
" />
<path d="M69135 26533
L67954 26533
" />
<path d="M69135 24959
L69135 26533
" />
<path d="M68348 24959
L69135 24959
" />
<path d="M68348 19250
L68348 24959
" />
<path d="M69135 19250
L68348 19250
" />
<path d="M69135 17085
L69135 19250
" />
<path d="M68348 17085
L69135 17085
" />
<path d="M68348 14329
L68348 17085
" />
<path d="M32794 23118
L32794 20362
" />
<path d="M32794 23118
L34172 23118
" />
<path d="M34172 20362
L32794 20362
" />
<path d="M34172 20362
L34172 23118
" />
<path d="M68972 30078
L67586 30078
" />
<path d="M68972 27401
L68972 30078
" />
<path d="M67586 27401
L68972 27401
" />
<path d="M67586 30078
L67586 27401
" />
<path d="M55977 28015
L55780 28015
" />
<path d="M55780 28015
L55780 28212
" />
<path d="M55977 33921
L55780 33921
" />
<path d="M55780 33921
L55780 33724
" />
<path d="M63260 33724
L63260 33921
" />
<path d="M63260 33921
L63063 33921
" />
<path d="M63260 28212
L63260 28015
" />
<path d="M63260 28015
L63063 28015
" />
<path d="M63063 33921
L55977 33921
" />
<path d="M63260 28212
L63260 33724
" />
<path d="M55977 28015
L63063 28015
" />
<path d="M55780 33724
L55780 28212
" />
<path d="M39301 16355
L42057 16355
" />
<path d="M39301 16355
L39301 17733
" />
<path d="M42057 17733
L42057 16355
" />
<path d="M42057 17733
L39301 17733
" />
<path d="M69272 43062
L69272 45818
" />
<path d="M69272 43062
L67894 43062
" />
<path d="M67894 45818
L69272 45818
" />
<path d="M67894 45818
L67894 43062
" />
<path d="M38000 46348
L35559 46348
" />
<path d="M38000 46348
L38000 44931
" />
<path d="M35559 44931
L35559 46348
" />
<path d="M35559 44931
L38000 44931
" />
<path d="M39022 34650
L39022 28429
" />
<path d="M39022 34650
L43376 34650
" />
<path d="M43376 28429
L39022 28429
" />
<path d="M43376 28429
L43376 34650
" />
<path d="M35559 43431
L38000 43431
" />
<path d="M35559 43431
L35559 44848
" />
<path d="M38000 44848
L38000 43431
" />
<path d="M38000 44848
L35559 44848
" />
<path d="M45151 28289
L45151 21359
" />
<path d="M41135 28289
L45151 28289
" />
<path d="M41135 21359
L41135 28289
" />
<path d="M45151 21359
L41135 21359
" />
<path d="M34901 40047
L37657 40047
" />
<path d="M34901 40047
L34901 41425
" />
<path d="M37657 41425
L37657 40047
" />
<path d="M37657 41425
L34901 41425
" />
<path d="M37557 36625
L34801 36625
" />
<path d="M37557 36625
L37557 35247
" />
<path d="M34801 35247
L34801 36625
" />
<path d="M34801 35247
L37557 35247
" />
<path d="M37842 41366
L43716 41366
" />
<path d="M37842 37114
L43716 37114
" />
<path d="M43716 37114
L43716 41366
" />
<path d="M37842 37114
L37842 41366
" />
<path d="M75354 40957
L80197 40957
" />
<path d="M75354 34146
L75354 40957
" />
<path d="M80197 34146
L75354 34146
" />
<path d="M80197 40957
L80197 34146
" />
<path d="M28414 52084
L42902 52084
" />
<path d="M28414 46769
L28414 52084
" />
<path d="M42902 46769
L28414 46769
" />
<path d="M42902 52084
L42902 46769
" />
<path d="M74686 56518
L74686 53762
" />
<path d="M74686 56518
L76064 56518
" />
<path d="M76064 53762
L74686 53762
" />
<path d="M76064 53762
L76064 56518
" />
<path d="M45293 29726
L45293 16443
" />
<path d="M45293 29726
L54978 29726
" />
<path d="M54978 16443
L45293 16443
" />
<path d="M54978 16443
L54978 29726
" />
<path d="M39386 24178
L39386 21501
" />
<path d="M39386 21501
L40772 21501
" />
<path d="M40772 21501
L40772 24178
" />
<path d="M40772 24178
L39386 24178
" />
<path d="M53688 43719
L53688 46160
" />
<path d="M53688 43719
L52271 43719
" />
<path d="M52271 46160
L53688 46160
" />
<path d="M52271 46160
L52271 43719
" />
<path d="M71686 30978
L71686 28301
" />
<path d="M71686 28301
L73072 28301
" />
<path d="M73072 28301
L73072 30978
" />
<path d="M73072 30978
L71686 30978
" />
<path d="M71172 30978
L69786 30978
" />
<path d="M71172 28301
L71172 30978
" />
<path d="M69786 28301
L71172 28301
" />
<path d="M69786 30978
L69786 28301
" />
<circle cx="28279.7" cy="68140.2" r="2716.54" /> 
<circle cx="92279.7" cy="68140.2" r="2716.54" /> 
<circle cx="92279.7" cy="17140.2" r="2716.54" /> 
<path d="M54774 31001
L44616 31001
" />
<path d="M54774 33678
L54774 31001
" />
<path d="M44616 33678
L54774 33678
" />
<path d="M44616 31001
L44616 33678
" />
<path d="M81752 49896
L89468 49896
" />
<path d="M81752 35407
L81752 49896
" />
<path d="M89468 35407
L81752 35407
" />
<path d="M89468 49896
L89468 35407
" />
<path d="M32545 34804
L38214 34804
" />
<path d="M38214 34804
L38214 27875
" />
<path d="M38214 27875
L32545 27875
" />
<path d="M32545 27875
L32545 34804
" />
<path d="M30401 35447
L33157 35447
" />
<path d="M30401 35447
L30401 36825
" />
<path d="M33157 36825
L33157 35447
" />
<path d="M33157 36825
L30401 36825
" />
<path d="M39371 20760
L39371 18319
" />
<path d="M39371 20760
L40788 20760
" />
<path d="M40788 18319
L39371 18319
" />
<path d="M40788 18319
L40788 20760
" />
<path d="M71080 24824
L71080 19312
" />
<path d="M71277 19115
L78363 19115
" />
<path d="M78560 19312
L78560 24824
" />
<path d="M78363 25021
L71277 25021
" />
<path d="M78560 19115
L78363 19115
" />
<path d="M78560 19312
L78560 19115
" />
<path d="M78560 25021
L78363 25021
" />
<path d="M78560 24824
L78560 25021
" />
<path d="M71080 25021
L71080 24824
" />
<path d="M71277 25021
L71080 25021
" />
<path d="M71080 19115
L71080 19312
" />
<path d="M71277 19115
L71080 19115
" />
<path d="M55794 46218
L55794 43462
" />
<path d="M55794 46218
L57172 46218
" />
<path d="M57172 43462
L55794 43462
" />
<path d="M57172 43462
L57172 46218
" />
<circle cx="36179.7" cy="38192.2" r="1535.43" /> 
<path d="M73639 56990
L73639 49274
" />
<path d="M45135 56990
L73639 56990
" />
<path d="M45135 49274
L45135 56990
" />
<path d="M73639 49274
L45135 49274
" />
<path d="M45219 42206
L73723 42206
" />
<path d="M73723 42206
L73723 34489
" />
<path d="M73723 34489
L45219 34489
" />
<path d="M45219 34489
L45219 42206
" />
<path d="M67671 33860
L67671 31419
" />
<path d="M67671 33860
L69088 33860
" />
<path d="M69088 31419
L67671 31419
" />
<path d="M69088 31419
L69088 33860
" />
<path d="M63971 29860
L63971 27419
" />
<path d="M63971 29860
L65388 29860
" />
<path d="M65388 27419
L63971 27419
" />
<path d="M65388 27419
L65388 29860
" />
<path d="M73188 31819
L73188 34260
" />
<path d="M73188 31819
L71771 31819
" />
<path d="M71771 34260
L73188 34260
" />
<path d="M71771 34260
L71771 31819
" />
<path d="M62092 64900
L62092 62380
" />
<path d="M63667 64900
L63667 62380
" />
<path d="M62092 64900
L63667 64900
" />
<path d="M62092 62380
L63667 62380
" />
<path d="M37360 68911
L37360 64896
" />
<path d="M37360 64896
L30430 64896
" />
<path d="M30430 64896
L30430 68911
" />
<path d="M30430 68911
L37360 68911
" />
<path d="M75667 64900
L74092 64900
" />
<path d="M75667 62380
L74092 62380
" />
<path d="M74092 62380
L74092 64900
" />
<path d="M75667 62380
L75667 64900
" />
<path d="M72399 68911
L79328 68911
" />
<path d="M72399 64896
L72399 68911
" />
<path d="M79328 64896
L72399 64896
" />
<path d="M79328 68911
L79328 64896
" />
<path d="M67501 60447
L70257 60447
" />
<path d="M67501 60447
L67501 61825
" />
<path d="M70257 61825
L70257 60447
" />
<path d="M70257 61825
L67501 61825
" />
<path d="M63257 61825
L60501 61825
" />
<path d="M63257 61825
L63257 60447
" />
<path d="M60501 60447
L60501 61825
" />
<path d="M60501 60447
L63257 60447
" />
<path d="M39501 60447
L42257 60447
" />
<path d="M39501 60447
L39501 61825
" />
<path d="M42257 61825
L42257 60447
" />
<path d="M42257 61825
L39501 61825
" />
<path d="M35257 61825
L32501 61825
" />
<path d="M35257 61825
L35257 60447
" />
<path d="M32501 60447
L32501 61825
" />
<path d="M32501 60447
L35257 60447
" />
<path d="M34092 62380
L35667 62380
" />
<path d="M34092 64900
L35667 64900
" />
<path d="M35667 64900
L35667 62380
" />
<path d="M34092 64900
L34092 62380
" />
<path d="M49257 61825
L46501 61825
" />
<path d="M49257 61825
L49257 60447
" />
<path d="M46501 60447
L46501 61825
" />
<path d="M46501 60447
L49257 60447
" />
<path d="M53501 60447
L56257 60447
" />
<path d="M53501 60447
L53501 61825
" />
<path d="M56257 61825
L56257 60447
" />
<path d="M56257 61825
L53501 61825
" />
<path d="M77257 61825
L74501 61825
" />
<path d="M77257 61825
L77257 60447
" />
<path d="M74501 60447
L74501 61825
" />
<path d="M74501 60447
L77257 60447
" />
<path d="M81501 60447
L84257 60447
" />
<path d="M81501 60447
L81501 61825
" />
<path d="M84257 61825
L84257 60447
" />
<path d="M84257 61825
L81501 61825
" />
<path d="M33667 62380
L33667 64900
" />
<path d="M32092 62380
L32092 64900
" />
<path d="M33667 62380
L32092 62380
" />
<path d="M33667 64900
L32092 64900
" />
<path d="M40667 62380
L40667 64900
" />
<path d="M39092 62380
L39092 64900
" />
<path d="M40667 62380
L39092 62380
" />
<path d="M40667 64900
L39092 64900
" />
<path d="M47667 64900
L46092 64900
" />
<path d="M47667 62380
L46092 62380
" />
<path d="M46092 62380
L46092 64900
" />
<path d="M47667 62380
L47667 64900
" />
<path d="M54667 62380
L54667 64900
" />
<path d="M53092 62380
L53092 64900
" />
<path d="M54667 62380
L53092 62380
" />
<path d="M54667 64900
L53092 64900
" />
<path d="M61667 62380
L61667 64900
" />
<path d="M60092 62380
L60092 64900
" />
<path d="M61667 62380
L60092 62380
" />
<path d="M61667 64900
L60092 64900
" />
<path d="M68667 64900
L67092 64900
" />
<path d="M68667 62380
L67092 62380
" />
<path d="M67092 62380
L67092 64900
" />
<path d="M68667 62380
L68667 64900
" />
<path d="M82667 62380
L82667 64900
" />
<path d="M81092 62380
L81092 64900
" />
<path d="M82667 62380
L81092 62380
" />
<path d="M82667 64900
L81092 64900
" />
<path d="M41092 62380
L42667 62380
" />
<path d="M41092 64900
L42667 64900
" />
<path d="M42667 64900
L42667 62380
" />
<path d="M41092 64900
L41092 62380
" />
<path d="M48092 64900
L48092 62380
" />
<path d="M49667 64900
L49667 62380
" />
<path d="M48092 64900
L49667 64900
" />
<path d="M48092 62380
L49667 62380
" />
<path d="M55092 62380
L56667 62380
" />
<path d="M55092 64900
L56667 64900
" />
<path d="M56667 64900
L56667 62380
" />
<path d="M55092 64900
L55092 62380
" />
<path d="M69092 62380
L70667 62380
" />
<path d="M69092 64900
L70667 64900
" />
<path d="M70667 64900
L70667 62380
" />
<path d="M69092 64900
L69092 62380
" />
<path d="M76092 64900
L76092 62380
" />
<path d="M77667 64900
L77667 62380
" />
<path d="M76092 64900
L77667 64900
" />
<path d="M76092 62380
L77667 62380
" />
<path d="M83092 62380
L84667 62380
" />
<path d="M83092 64900
L84667 64900
" />
<path d="M84667 64900
L84667 62380
" />
<path d="M83092 64900
L83092 62380
" />
<path d="M30559 37431
L33000 37431
" />
<path d="M30559 37431
L30559 38848
" />
<path d="M33000 38848
L33000 37431
" />
<path d="M33000 38848
L30559 38848
" />
<path d="M58008 46844
L67378 46844
" />
<path d="M58008 42435
L58008 46844
" />
<path d="M67378 42435
L58008 42435
" />
<path d="M67378 46844
L67378 42435
" />
<path d="M37430 68911
L44360 68911
" />
<path d="M37430 64896
L37430 68911
" />
<path d="M44360 64896
L37430 64896
" />
<path d="M44360 68911
L44360 64896
" />
<path d="M44430 68911
L51360 68911
" />
<path d="M44430 64896
L44430 68911
" />
<path d="M51360 64896
L44430 64896
" />
<path d="M51360 68911
L51360 64896
" />
<path d="M51430 68911
L58360 68911
" />
<path d="M51430 64896
L51430 68911
" />
<path d="M58360 64896
L51430 64896
" />
<path d="M58360 68911
L58360 64896
" />
<path d="M58430 68911
L65360 68911
" />
<path d="M58430 64896
L58430 68911
" />
<path d="M65360 64896
L58430 64896
" />
<path d="M65360 68911
L65360 64896
" />
<path d="M72328 68911
L72328 64896
" />
<path d="M72328 64896
L65399 64896
" />
<path d="M65399 64896
L65399 68911
" />
<path d="M65399 68911
L72328 68911
" />
<path d="M86328 68911
L86328 64896
" />
<path d="M86328 64896
L79399 64896
" />
<path d="M79399 64896
L79399 68911
" />
<path d="M79399 68911
L86328 68911
" />
<g >
</g>
<g >
</g>
<g >
</g>
<g >
</g>
<g >
</g>
<g >
</g>
<g >
</g>
<g >
</g>
<g >
</g>
<g >
</g>
<g >
</g>
<g >
</g>
<g >
</g>
<g >
</g>
<g >
</g>
<g >
</g>
<g >
</g>
<g >
</g>
<g >
</g>
<g >
</g>
<g >
</g>
<g >
</g>
<g >
</g>
<g >
</g>
<g >
</g>
<g >
</g>
<g >
</g>
<g >
</g>
<g >
</g>
<g >
</g>
<g >
</g>
<g >
</g>
<g >
</g>
<g >
</g>
<g >
</g>
<g >
</g>
<g >
</g>
<g >
</g>
<g >
</g>
<g >
</g>
<g >
</g>
<g >
</g>
<g >
</g>
<g >
</g>
<g >
</g>
<g >
</g>
<g >
</g>
<g >
</g>
<g >
</g>
<g >
</g>
<g >
</g>
<g >
</g>
<g >
</g>
<g >
</g>
<g >
</g>
<g >
</g>
<g >
</g>
<g >
</g>
<g >
</g>
<g >
</g>
<g >
</g>
<g >
</g>
<g >
</g>
<g >
</g>
<g >
</g>
<g >
</g>
<g >
</g>
<g >
</g>
<g >
</g>
<g >
</g>
<g >
</g>
<g >
</g>
<g >
</g>
<g >
</g>
<g >
</g>
<g >
</g>
<g >
</g>
<g >
</g>
<g >
</g>
<g >
</g>
</g> 
</svg>
